<svg width="74" height="74" viewBox="0 0 74 74" fill="none" xmlns="http://www.w3.org/2000/svg">
<path d="M27.4687 38.2747C29.1681 38.8937 30.9632 38.3047 32.0051 37.0385L24.7886 34.4124C24.7741 36.0479 25.7651 37.6536 27.4687 38.2747Z" fill="#699FF1"/>
<path d="M46.5313 38.2747C48.2331 37.6543 49.2259 36.0489 49.2114 34.4124L41.9949 37.0385C43.0266 38.2924 44.8206 38.8993 46.5313 38.2747Z" fill="#699FF1"/>
<path d="M19.3633 49.21C19.3633 52.2028 21.7972 54.6366 24.79 54.6366V60.1538H28.86V51.9233H31.5733V60.1538H35.6433V51.9233H38.3567V60.1538H42.4267V51.9233H45.14V60.1538H49.21V54.6366C52.2028 54.6366 54.6367 52.2028 54.6367 49.21C54.6367 48.0653 54.2685 46.9605 53.5994 46.0434C56.0569 42.5909 57.35 38.5502 57.35 34.2866C57.35 23.0652 48.2215 13.8462 37 13.8462C25.7785 13.8462 16.65 23.0652 16.65 34.2866C16.65 38.5502 17.9431 42.5909 20.4006 46.0434C19.7315 46.9605 19.3633 48.0653 19.3633 49.21ZM41.2979 48.6058L38.5845 44.5358L40.8421 43.0308L43.5555 47.1008L41.2979 48.6058ZM51.0489 30.8565L51.5128 32.1312C52.7942 35.6468 50.9885 39.5405 47.4587 40.8234C43.9434 42.1041 40.0504 40.3023 38.7647 36.7693L38.2998 35.4949L51.0489 30.8565ZM32.7021 48.6058L30.4445 47.1008L33.1579 43.0308L35.4155 44.5358L32.7021 48.6058ZM22.4872 32.1312L22.9511 30.8565L35.7002 35.4949L35.2353 36.7693C33.9507 40.2987 30.0598 42.1051 26.5413 40.8234C23.0246 39.5455 21.2012 35.6599 22.4872 32.1312Z" fill="#699FF1"/>
</svg>
