<svg width="74" height="74" viewBox="0 0 74 74" fill="none" xmlns="http://www.w3.org/2000/svg">
<path fill-rule="evenodd" clip-rule="evenodd" d="M19.8481 64.2344C19.8481 64.2344 22.1548 64.9362 22.6161 64.7023C23.0775 64.4683 24.9229 62.3628 25.0382 62.0119C25.1536 61.778 26.4223 56.8652 29.421 57.918C29.6517 57.918 35.3033 52.0694 35.4186 51.7185C35.5339 51.3676 39.3401 50.5488 39.6861 50.7828C40.0321 51.0167 42.4542 52.1864 44.7609 49.3791C45.1069 48.9112 44.9916 47.7415 44.6456 47.1567C44.5302 47.0397 45.9143 43.7645 39.4554 40.0215C39.1094 39.9045 38.7634 39.9045 38.302 39.9045C38.302 39.9045 38.5327 39.4366 36.8026 38.9687C36.572 38.8518 30.6898 37.0972 30.6898 37.0972C30.6898 37.0972 31.2664 34.4069 30.5744 34.2899C29.8824 34.1729 29.5364 33.939 30.2284 33.4711C30.9204 33.0032 31.1511 32.8863 31.3818 33.0032C31.6125 33.0032 33.8039 30.6638 33.8039 30.1959C33.8039 30.079 38.7634 32.8863 39.3401 33.939C39.4554 34.1729 40.9548 35.4596 41.1855 35.3427C41.4161 35.3427 43.8382 34.9917 44.8762 34.4069C45.1069 34.2899 45.2223 34.5239 45.4529 33.4711C45.5683 33.2372 48.7977 30.1959 48.7977 30.1959C48.9131 29.7281 48.9131 29.1432 48.6824 28.7923C48.567 28.5584 49.0284 28.0905 49.1437 27.9735C49.3744 27.8565 49.1437 26.6868 49.2591 26.5699C49.3744 26.4529 51.6811 24.4644 51.9118 24.1135C52.1425 23.5286 52.1425 22.9438 52.1425 22.3589C52.1425 22.008 52.3732 21.891 52.7192 22.008C53.0652 22.125 53.4112 22.125 53.8726 22.125C54.1032 22.125 54.1032 21.6571 54.2186 21.6571C54.3339 21.5401 54.4492 21.5401 54.4492 21.5401C54.4492 21.5401 54.5646 20.9553 54.3339 20.9553C54.1032 20.8383 55.2566 20.3704 55.3719 20.3704C55.4873 20.3704 60.9081 20.8383 60.9081 20.8383C61.2541 20.7213 61.4848 20.4874 61.8308 20.2535C62.0615 20.0195 61.9462 19.2007 61.9462 18.9668C61.9462 18.7328 61.0235 18.4989 60.9081 18.4989C60.7928 18.4989 60.9081 18.7328 60.6775 18.7328C60.4468 18.7328 55.6026 17.914 55.6026 17.914L53.4112 17.7971C53.4112 17.7971 53.5265 17.5631 53.1805 17.5631C52.8345 17.5631 49.9511 17.3292 49.8357 17.3292C49.7204 17.3292 49.9511 16.9783 49.6051 16.9783C49.4897 16.9783 49.4897 17.3292 49.2591 17.5631C48.9131 17.7971 48.567 17.5631 48.3364 17.5631C48.1057 17.5631 48.567 18.148 48.567 18.3819C48.567 18.6159 48.6824 18.9668 48.4517 19.0837C48.1057 19.2007 47.7597 19.2007 47.4137 19.2007C46.9523 19.3177 47.0677 19.3177 46.9523 19.4347C46.837 19.5516 45.7989 19.5516 45.4529 19.6686C45.1069 19.7856 44.7609 19.9025 44.2996 19.9025C43.9535 20.0195 41.9928 20.1365 41.7621 20.1365C41.5315 20.2535 40.4934 19.4347 39.8014 19.7856C39.5707 19.9025 39.2247 20.0195 38.8787 20.0195C38.8787 19.7856 38.8787 19.5516 38.994 19.4347C39.1094 19.2007 38.994 19.0837 38.8787 18.8498C38.7634 18.3819 38.7634 17.914 38.8787 17.5631C39.1094 17.2122 40.0321 17.3292 40.3781 17.3292C40.7241 17.3292 41.9928 15.1067 40.1474 11.9485C39.8014 11.4807 39.4554 10.8958 39.1094 10.5449C38.994 10.311 38.4174 10.4279 38.302 10.311C38.1867 10.311 36.918 9.14125 35.1879 9.25822C33.4579 9.25822 32.3045 9.25822 30.5744 11.0128C30.3437 11.1298 30.4591 11.4807 30.2284 11.5976C29.9977 11.7146 29.7671 11.4807 29.421 11.8316C29.1904 12.1825 28.8444 12.5334 28.9597 12.8843C29.075 13.2352 29.1904 13.2352 29.1904 13.3522C29.1904 13.4692 29.075 13.7031 28.9597 13.8201C28.729 14.054 28.383 14.4049 28.1523 14.6389C27.9217 14.8728 28.037 15.4577 28.1523 15.5746C28.2677 15.6916 28.383 15.9255 28.2677 15.9255C28.1523 16.0425 27.4603 16.5104 27.2296 16.6274C26.999 16.8613 26.8836 15.6916 24.8076 15.8086C22.8468 16.0425 20.6554 16.2765 18.81 20.1365C16.9646 23.9965 15.0039 27.8565 14.8886 29.0262C14.7732 30.1959 13.2738 34.8748 13.1585 35.3427C13.0432 35.8105 12.6971 36.2784 13.2738 36.3954C13.9659 36.6293 14.0812 36.3954 14.0812 36.7463C14.0812 37.0972 13.9659 38.3839 13.9659 38.3839C13.9659 38.3839 14.4272 38.5009 14.4272 38.6178C14.4272 38.7348 15.8112 43.0627 15.9266 43.4136C16.0419 43.6476 17.3106 43.9985 17.5413 44.2324C17.772 44.4664 18.3487 44.5833 18.464 44.7003C18.464 44.8173 18.5793 45.1682 18.81 45.2851C19.156 45.4021 22.2701 46.2209 22.2701 46.3379C22.3855 46.5718 21.6934 50.4319 21.6934 50.6658C21.5781 50.8997 22.1548 50.4319 22.1548 50.6658C22.2701 50.8997 22.3855 50.8997 22.1548 51.1337C21.9241 51.3676 20.8861 51.8355 20.6554 54.6428C20.5401 55.4616 20.6554 55.3446 20.3094 55.6955C19.9634 56.1634 19.0407 57.2161 19.0407 57.5671C19.0407 57.918 20.7708 57.801 20.7708 58.0349C20.7708 58.6198 20.4247 63.7665 19.8481 64.2344ZM39.2247 27.0377L39.8014 27.6226C39.8014 27.6226 40.0321 27.5056 40.1474 27.7396C40.2628 27.9735 41.3008 29.0262 41.4161 29.1432C41.5315 29.2602 43.1462 25.868 44.1842 25.7511C44.4149 25.7511 44.5302 25.868 44.7609 25.4002C45.1069 24.9323 44.8762 25.0492 44.9916 24.9323C45.1069 24.8153 45.3376 24.8153 45.5683 24.8153C45.7989 24.8153 46.0296 24.9323 46.491 24.4644C46.837 23.9965 46.9523 23.7626 46.2603 23.7626C46.0296 23.7626 45.9143 23.5286 45.6836 23.6456C45.4529 23.7626 44.9916 24.5814 44.5302 24.6983C44.1842 24.9323 43.3769 25.868 43.0308 25.985C42.6848 26.219 40.0321 27.0377 39.2247 27.0377ZM52.9499 20.1365C52.9499 20.1365 53.4112 20.6044 53.5265 20.6044C53.7572 20.7213 54.2186 20.2535 52.9499 20.1365ZM52.6038 21.3062C52.9499 21.3062 53.2959 21.3062 53.6419 21.3062C53.7572 21.3062 53.6419 21.6571 53.6419 21.6571C53.6419 21.6571 52.7192 21.5401 52.6038 21.3062Z" fill="#699FF1"/>
</svg>
