<svg width="74" height="74" viewBox="0 0 74 74" fill="none" xmlns="http://www.w3.org/2000/svg">
<path d="M26.8429 22.6756H24.6336V15.9414C24.6336 15.2565 24.1684 14.8 23.4708 14.8H19.1685C18.4708 14.8 18.0057 15.2565 18.0057 15.9414V22.6756H15.7964C15.0987 22.6756 14.6336 23.1321 14.6336 23.817V28.0401C14.6336 28.7249 15.0987 29.1815 15.7964 29.1815H18.0057V58.0586C18.0057 58.7434 18.4708 59.2 19.1685 59.2H23.4708C24.1684 59.2 24.6336 58.7434 24.6336 58.0586V29.0673H26.8429C27.5405 29.0673 28.0057 28.6108 28.0057 27.926V23.817C28.0057 23.1321 27.5405 22.6756 26.8429 22.6756Z" fill="#699FF1"/>
<path d="M43.587 45.0468H41.3777V15.9414C41.3777 15.2565 40.9126 14.8 40.2149 14.8H35.9126C35.215 14.8 34.7498 15.2565 34.7498 15.9414V45.0468H32.5405C31.8429 45.0468 31.3777 45.5033 31.3777 46.1882V50.4113C31.3777 51.0961 31.8429 51.5527 32.5405 51.5527H34.7498V57.9445C34.7498 58.6293 35.215 59.0858 35.9126 59.0858H40.2149C40.9126 59.0858 41.3777 58.6293 41.3777 57.9445V51.5527H43.587C44.2847 51.5527 44.7498 51.0961 44.7498 50.4113V46.1882C44.7498 45.5033 44.1684 45.0468 43.587 45.0468Z" fill="#699FF1"/>
<path d="M60.3312 33.747H58.1219V15.9414C58.1219 15.2565 57.6568 14.8 56.9591 14.8H52.6568C51.9591 14.8 51.494 15.2565 51.494 15.9414V33.747H49.2847C48.587 33.747 48.1219 34.2036 48.1219 34.8884V39.1116C48.1219 39.7964 48.587 40.2529 49.2847 40.2529H51.494V58.0586C51.494 58.7434 51.9591 59.2 52.6568 59.2H56.9591C57.6568 59.2 58.1219 58.7434 58.1219 58.0586V40.1388H60.3312C61.0288 40.1388 61.494 39.6823 61.494 38.9974V34.7743C61.494 34.2036 60.9126 33.747 60.3312 33.747Z" fill="#699FF1"/>
</svg>
