<svg width="28" height="28" viewBox="0 0 28 28" fill="none" xmlns="http://www.w3.org/2000/svg">
<g id="customer-service 1" clip-path="url(#clip0_75_11)">
<g id="Group">
<path id="Vector" d="M28 15.3125C28 13.0341 26.384 11.1633 24.3437 11.0044C24.1017 10.1889 23.4479 9.54898 22.624 9.32701C22.0746 4.81075 18.4073 1.36719 14 1.36719C9.59273 1.36719 5.92539 4.81075 5.37605 9.32701C4.55219 9.54898 3.89829 10.1888 3.65635 11.0044C3.58548 11.01 3.51515 11.0176 3.44537 11.0272V5.6875C3.44537 5.23447 3.07809 4.86719 2.62505 4.86719C2.17202 4.86719 1.80474 5.23447 1.80474 5.6875V11.6838C0.719906 12.454 0 13.7923 0 15.3125C0 17.5909 1.61602 19.4617 3.6563 19.6206C3.89752 20.4335 4.54798 21.0718 5.36818 21.2957C5.71763 23.3298 7.49279 24.8828 9.625 24.8828H9.81471C10.1579 25.8989 11.1196 26.6328 12.25 26.6328H15.75C17.1673 26.6328 18.3203 25.4798 18.3203 24.0625C18.3203 22.6452 17.1673 21.4922 15.75 21.4922H12.25C11.1196 21.4922 10.1579 22.2261 9.81471 23.2422H9.625C8.38452 23.2422 7.33852 22.3948 7.03467 21.2485C7.9998 20.9156 8.69531 19.9987 8.69531 18.9219V11.7031C8.69531 10.6226 7.99498 9.70309 7.02461 9.37311C7.53703 5.74973 10.4779 3.00781 14 3.00781C17.5221 3.00781 20.463 5.74973 20.9754 9.37311C20.005 9.70309 19.3047 10.6226 19.3047 11.7031V18.9219C19.3047 20.2788 20.4087 21.3828 21.7656 21.3828H21.9844C23.0986 21.3828 24.0418 20.6382 24.3437 19.6206C26.384 19.4617 28 17.5909 28 15.3125ZM12.25 23.1328H15.75C16.2626 23.1328 16.6797 23.5499 16.6797 24.0625C16.6797 24.5751 16.2626 24.9922 15.75 24.9922H12.25C11.7374 24.9922 11.3203 24.5751 11.3203 24.0625C11.3203 23.5499 11.7374 23.1328 12.25 23.1328ZM1.64062 15.3125C1.64062 14.0116 2.48418 12.8916 3.55469 12.6718V17.9531C2.48418 17.7334 1.64062 16.6134 1.64062 15.3125ZM7.05469 18.9219C7.05469 19.3742 6.6867 19.7422 6.23438 19.7422H6.01562C5.5633 19.7422 5.19531 19.3742 5.19531 18.9219C5.19531 16.2895 5.19531 14.1365 5.19531 11.7031C5.19531 11.2508 5.5633 10.8828 6.01562 10.8828H6.23438C6.6867 10.8828 7.05469 11.2508 7.05469 11.7031V18.9219ZM22.8047 18.9219C22.8047 19.3742 22.4367 19.7422 21.9844 19.7422H21.7656C21.3133 19.7422 20.9453 19.3742 20.9453 18.9219V11.7031C20.9453 11.2508 21.3133 10.8828 21.7656 10.8828H21.9844C22.4367 10.8828 22.8047 11.2508 22.8047 11.7031V18.9219ZM24.4453 17.9532V12.6719C25.5158 12.8916 26.3594 14.0117 26.3594 15.3126C26.3594 16.6134 25.5158 17.7334 24.4453 17.9532Z" fill="#B87700"/>
</g>
</g>
<defs>
<clipPath id="clip0_75_11">
<rect width="28" height="28" fill="white"/>
</clipPath>
</defs>
</svg>
