<svg width="154" height="154" viewBox="0 0 154 154" fill="none" xmlns="http://www.w3.org/2000/svg">
<path d="M95.0284 61.7002C86.6064 53.9873 67.6154 53.8923 59.1142 61.5021C54.8319 65.3368 54.8319 70.4589 59.0706 74.353C59.8528 75.0475 60.6945 75.6719 61.5861 76.2188C69.9922 71.1125 84.0751 71.1838 92.394 76.3971C93.3015 75.8639 94.1581 75.2486 94.9531 74.559C99.2592 70.7045 99.2869 65.6062 95.0284 61.7002Z" fill="#173D7A"/>
<path d="M54.4865 46.9875L40.4512 38.7953L26.8992 46.5478L40.8949 54.7321C40.6176 54.9737 40.3799 55.2431 40.1462 55.4847C38.1342 57.412 36.5274 59.7218 35.4202 62.2786L28.2897 62.235L15.522 62.1637L15.4784 73.216L35.3647 73.319C35.7382 74.2887 36.2094 75.2178 36.771 76.092C37.8555 77.8864 39.1893 79.5176 40.7325 80.9368L26.6615 88.9785L28.1589 89.8698L39.8847 96.7191L40.166 96.8657L54.2488 88.8319C55.5165 89.2994 56.8316 89.7114 58.1468 90.0996C61.161 90.9648 64.2339 91.6109 67.3413 92.0327L67.3135 95.4V103.509L86.4432 103.616L86.4908 95.499V92.1357C89.6065 91.7313 92.6906 91.1118 95.7208 90.2818C97.0598 89.9094 98.3512 89.4895 99.6189 89.0538L113.619 97.2539L113.884 97.1192L125.705 90.3848L127.214 89.5172L113.191 81.3211C114.746 79.9128 116.1 78.2972 117.215 76.5198C117.784 75.6524 118.27 74.7332 118.665 73.7746L138.56 73.8736L138.599 62.8332L125.828 62.7579L118.717 62.7262C117.654 60.1572 116.077 57.833 114.082 55.8967C113.825 55.6392 113.595 55.3659 113.313 55.1282L127.416 47.0865L113.947 39.1994L99.8407 47.245C95.5995 45.6985 91.2009 44.6238 86.7245 44.0402L86.7958 32.5521L67.6621 32.457L67.5948 43.9451C63.1292 44.488 58.7347 45.508 54.4865 46.9875V46.9875ZM94.9523 74.5589C94.1573 75.2486 93.3007 75.8639 92.3933 76.397C84.0228 81.5152 69.932 81.432 61.5853 76.2188C60.6937 75.6718 59.852 75.0475 59.0698 74.353C54.8311 70.4589 54.8311 65.3368 59.1134 61.5021C67.6146 53.8922 86.6056 53.9754 95.0276 61.7002C99.2861 65.6061 99.2584 70.7045 94.9523 74.5589Z" fill="#D4ECFF"/>
<path d="M113.873 95.9307L113.607 96.0654L99.6078 87.8652C98.3401 88.3168 97.0487 88.7209 95.7098 89.0933C92.6829 89.9161 89.6028 90.5289 86.4915 90.9274V94.2907L86.444 102.408L67.3143 102.301V103.489L86.444 103.596L86.4915 95.4791V92.1158C89.6068 91.7179 92.6909 91.1051 95.7216 90.2817C97.0606 89.9093 98.352 89.4894 99.6197 89.0537L113.619 97.2538L113.885 97.1191L125.706 90.3847L127.215 89.5171L126.189 88.919L125.706 89.1963L113.873 95.9307Z" fill="#F6FBFF"/>
<path d="M36.7916 74.9036C36.231 74.0288 35.7599 73.0998 35.3853 72.1306L15.503 72.0276V73.216L35.3893 73.319C35.7628 74.2886 36.234 75.2178 36.7956 76.092C37.6967 77.5792 38.7712 78.9542 39.9964 80.1881L40.7649 79.7484C39.2183 78.3292 37.8806 76.6981 36.7916 74.9036V74.9036Z" fill="#F6FBFF"/>
<path d="M58.1476 88.8916C56.8324 88.4954 55.5172 88.0993 54.2496 87.6239L40.1668 95.6576L39.8855 95.5111L28.1597 88.6618L27.6843 88.3766L26.6623 88.9787L28.1597 89.87L39.8855 96.7193L40.1668 96.8659L54.2496 88.8321C55.5172 89.2996 56.8324 89.7116 58.1476 90.0998C61.1586 90.966 64.229 91.6108 67.3341 92.029V90.8406C64.229 90.4132 61.1588 89.7618 58.1476 88.8916V88.8916Z" fill="#F6FBFF"/>
<path d="M40.8957 53.5436L27.926 45.9575L26.9 46.5478L40.147 54.2923C40.3807 54.0547 40.6184 53.7853 40.8957 53.5436Z" fill="#F6FBFF"/>
<path d="M86.7371 42.8517L86.8005 32.5521L86.7371 42.8517Z" fill="#F6FBFF"/>
<path d="M95.0284 60.5117C86.6064 52.7989 67.6154 52.7038 59.1142 60.3137C56.777 62.4092 55.7272 64.8851 55.9451 67.3333C56.1154 65.2813 57.1691 63.257 59.1142 61.5021C67.6154 53.8922 86.6064 53.9754 95.0284 61.7002C96.9497 63.459 97.9876 65.4675 98.1658 67.4957C98.3639 65.0713 97.326 62.6152 95.0284 60.5117Z" fill="#F6FBFF"/>
<path d="M138.56 72.6854L118.666 72.5864C118.27 73.545 117.785 74.4642 117.216 75.3316C116.101 77.109 114.747 78.7246 113.191 80.1329L113.964 80.5845C115.199 79.3581 116.291 77.9944 117.216 76.5201C117.785 75.6526 118.27 74.7335 118.666 73.7748L138.56 73.8738L138.6 62.8334L138.56 72.6854Z" fill="#F6FBFF"/>
<path d="M67.3421 92.0129L67.3223 94.1957V102.305V95.3841L67.3421 92.0129Z" fill="#F6FBFF"/>
<path d="M94.9531 73.3707C94.1581 74.0604 93.3015 74.6757 92.3941 75.2088C84.0236 80.3269 69.9328 80.2437 61.5861 75.0305C60.6945 74.4836 59.8528 73.8592 59.0706 73.1647C57.1454 71.3979 56.1075 69.3736 55.9332 67.3335C55.7312 69.7698 56.773 72.2417 59.0706 74.3531C59.8528 75.0477 60.6945 75.672 61.5861 76.2189C69.9328 81.4322 84.0236 81.5154 92.3941 76.3972C93.3015 75.8641 94.1581 75.2488 94.9531 74.5591C97.33 72.4437 98.3758 69.956 98.1659 67.4959C97.9955 69.5677 96.9339 71.596 94.9531 73.3707Z" fill="#F6FBFF"/>
<path d="M26.6623 88.9587L40.1668 96.8459L40.0519 113.413L26.5712 105.529L26.6623 88.9587Z" fill="#5793CE"/>
<path d="M54.2496 88.8121L54.1545 105.375L40.0519 113.413L40.1667 96.8459L54.2496 88.8121Z" fill="#173D7A"/>
<path d="M86.4242 103.596L86.3568 120.151L67.2074 120.064L67.2945 103.489L86.4242 103.596Z" fill="#5793CE"/>
<path d="M67.3421 92.013L67.251 108.568C62.7847 107.971 58.3945 106.9 54.1545 105.375L54.2496 88.8121C58.1754 90.4878 67.3421 92.013 67.3421 92.013Z" fill="#5793CE"/>
<path d="M35.3853 73.3189L35.3061 84.0346L26.6623 88.9586V89.842L15.4 89.7707L15.499 73.2159L35.3853 73.3189Z" fill="#173D7A"/>
<path d="M35.3853 73.3192C36.5945 76.2221 38.4302 78.822 40.761 80.9331L35.3061 84.0348L35.3853 73.3192Z" fill="#5793CE"/>
<path d="M113.607 97.2538L113.544 113.809L99.5365 105.62L99.6078 89.0537L113.607 97.2538Z" fill="#5793CE"/>
<path d="M127.203 89.5054L127.132 106.084L113.544 113.809L113.607 97.2539L127.203 89.5054Z" fill="#173D7A"/>
<path d="M99.6078 89.0536C99.683 87.9721 99.5365 105.62 99.5365 105.62C95.2893 107.138 90.8817 108.163 86.4004 108.674C86.4004 107.688 86.4915 92.1158 86.4915 92.1158C86.4915 92.1158 94.0143 91.1413 99.6078 89.0536Z" fill="#173D7A"/>
<path d="M138.56 73.8736L138.457 90.4402L127.203 90.3808V89.5053L118.591 84.4783L118.666 73.7745L138.56 73.8736Z" fill="#5793CE"/>
<path d="M118.666 73.7745L118.595 84.4704L113.191 81.3012C115.487 79.1708 117.346 76.6145 118.666 73.7745Z" fill="#173D7A"/>
<path d="M127.413 47.0865L127.342 62.8134L118.714 62.7262C118.714 62.7262 117.367 58.9589 113.31 55.1282L127.413 47.0865Z" fill="#173D7A"/>
<path d="M40.8956 54.732C36.8114 58.6182 35.421 62.2587 35.421 62.2587L26.793 62.231L26.892 46.5477L40.8956 54.732Z" fill="#173D7A"/>
</svg>
