<svg width="74" height="74" viewBox="0 0 74 74" fill="none" xmlns="http://www.w3.org/2000/svg">
<path d="M64.4293 34.4501C61.3854 28.248 52.4712 17 37.0344 17C20.9453 17 13.553 28.0377 9.53074 34.4501C8.76977 35.7116 8.87848 37.1833 9.53074 38.5499C12.6833 44.5418 20.4017 56 37.0344 56C53.9931 56 61.6028 44.3315 64.4293 38.5499C65.1902 37.1833 65.1902 35.8167 64.4293 34.4501ZM37.0344 47.9057C30.5118 47.9057 25.185 42.7547 25.185 36.4474C25.185 30.1402 30.5118 24.9892 37.0344 24.9892C43.557 24.9892 48.8838 30.1402 48.8838 36.4474C48.775 42.7547 43.557 47.9057 37.0344 47.9057ZM37.0344 27.8275C35.9473 27.8275 34.8602 28.0377 33.7731 28.3531C34.7515 29.089 35.295 30.1402 35.295 31.4016C35.295 33.504 33.5556 35.186 31.3814 35.186C30.1856 35.186 29.0985 34.6604 28.4463 33.8194C28.1201 34.6604 28.0114 35.6065 28.0114 36.5526C28.0114 41.3881 32.0337 45.2776 37.0344 45.2776C42.035 45.2776 46.0573 41.3881 46.0573 36.5526C45.9486 31.717 41.9263 27.8275 37.0344 27.8275Z" fill="#699FF1"/>
</svg>
