<svg width="129" height="126" viewBox="0 0 129 126" fill="none" xmlns="http://www.w3.org/2000/svg">
<path d="M125.902 36.1834L65.2014 1.13591C64.8976 0.947125 64.5562 0.826985 64.2012 0.783885C63.8461 0.740786 63.4859 0.775768 63.1458 0.886386V0.886386L63.0389 0.929953H63.0111L60.817 1.75376L62.7973 2.71619C62.7973 2.7558 62.7775 2.78748 62.7695 2.82709L52.0323 51.614C51.5372 53.8676 52.5274 56.4975 54.2463 57.4876L113.485 91.6915L113.275 94.2026L115.652 93.2718C116.444 92.8956 117.101 92.044 117.367 90.8281L128.092 42.057C128.607 39.8034 127.617 37.1736 125.902 36.1834Z" fill="#173D7A"/>
<path d="M125.902 36.1834L65.2013 1.13591C64.8975 0.947125 64.5561 0.826985 64.2011 0.783885C63.846 0.740786 63.4858 0.775768 63.1457 0.886386V0.886386L63.0388 0.929953H63.011L60.8169 1.75376L62.7972 2.71619C62.7972 2.7558 62.7774 2.78748 62.7694 2.82709L55.4146 36.2547L85.1192 59.3966L127.819 38.5875C127.466 37.5949 126.791 36.7487 125.902 36.1834V36.1834Z" fill="#396CAA"/>
<path d="M123.613 43.0987L128.231 41.1184C128.318 39.3282 127.577 37.4786 126.361 36.4884L119.046 39.5658L123.613 43.0987Z" fill="#274F89"/>
<path d="M111.164 93.9609L50.4639 58.9173C48.749 57.9272 47.7588 55.2973 48.2539 53.0437L58.9792 4.26871C59.4743 2.01907 61.2645 0.997234 62.9834 1.98739L123.684 37.031C125.399 38.0251 126.389 40.651 125.894 42.9046L115.169 91.6796C114.673 93.9332 112.891 94.955 111.164 93.9609Z" fill="#D4ECFF"/>
<path d="M124.266 36.8172L63.5656 1.77365C63.2127 1.55111 62.8079 1.42454 62.3911 1.40648C61.9743 1.38842 61.56 1.47949 61.1892 1.67068C61.8096 1.54121 62.456 1.65461 62.9953 1.98753L123.696 37.0311C125.411 38.0252 126.401 40.6511 125.906 42.9047L115.169 91.6797C115.088 92.169 114.903 92.6351 114.624 93.0454C114.346 93.4558 113.982 93.8006 113.557 94.0561C114.578 93.8303 115.434 92.8996 115.755 91.454L126.476 42.6908C126.971 40.4412 125.981 37.7955 124.266 36.8172Z" fill="white"/>
<path d="M109.849 90.6141L52.761 57.6736C51.1768 56.7666 50.2857 54.3586 50.7372 52.299L60.6387 7.34602C61.0902 5.28253 62.7339 4.34783 64.3023 5.25481L121.375 38.1913C122.959 39.0983 123.854 41.5024 123.399 43.5659L113.497 88.5189C113.061 90.5864 111.422 91.5211 109.849 90.6141Z" fill="white"/>
<path d="M109.849 90.6141L52.761 57.6736C51.1768 56.7666 50.2857 54.3586 50.7372 52.299L60.6387 7.34602C61.0902 5.28253 62.7339 4.34783 64.3023 5.25481L121.375 38.1913C122.959 39.0983 123.854 41.5024 123.399 43.5659L113.497 88.5189C113.061 90.5864 111.422 91.5211 109.849 90.6141Z" fill="#173D7A"/>
<path d="M110.348 90.4123L53.2601 57.4678C51.6758 56.5608 50.7807 54.1567 51.2362 52.0972L61.1377 7.14417C61.2085 6.70073 61.3735 6.27758 61.6214 5.9032C61.8694 5.52882 62.1947 5.2119 62.5755 4.97375C61.6685 5.20743 60.9239 6.055 60.6387 7.35013L50.7372 52.3032C50.2856 54.3627 51.1926 56.7707 52.761 57.6777L109.849 90.6182C110.18 90.8289 110.56 90.9473 110.952 90.9612C111.343 90.9752 111.731 90.8841 112.075 90.6974C111.783 90.7663 111.48 90.7766 111.183 90.7277C110.887 90.6787 110.603 90.5715 110.348 90.4123V90.4123Z" fill="#5793CE"/>
<path d="M112.004 95.4898L103.706 94.3927L50.147 63.4722C48.4281 62.4781 45.4299 62.6048 43.4456 63.7494L5.49496 85.6517L0.47685 84.9902V87.8379C0.445165 88.4954 0.821426 89.1291 1.62939 89.5964L62.3299 124.64C64.0448 125.63 67.047 125.507 69.0273 124.363L110.36 100.508C111.477 99.8624 112.032 99.0346 112 98.2544L112.004 95.4898Z" fill="#173D7A"/>
<path d="M71.7601 75.948L67.9539 73.7538H26.1179L5.49496 85.6356L0.47685 84.9742V87.8219C0.445165 88.4794 0.821426 89.1131 1.62939 89.5804L62.3298 124.624C63.3975 125.164 64.5967 125.389 65.7875 125.274L71.7601 75.948Z" fill="#396CAA"/>
<path d="M2.70272 85.2832L0.47685 84.9901V87.8378C0.445165 88.4953 0.821426 89.129 1.62939 89.5963L2.69876 90.2142L2.70272 85.2832Z" fill="#5793CE"/>
<path d="M62.9438 124.929C64.8173 125.537 66.8522 125.41 68.6352 124.573V118.236H62.9438V124.929Z" fill="#274F89"/>
<path d="M62.3339 121.796L1.6334 86.7526C-0.0815471 85.7584 0.132327 84.0276 2.1166 82.883L43.4457 59.0282C45.426 57.8836 48.4281 57.7608 50.147 58.751L110.844 93.7945C112.562 94.7887 112.349 96.5194 110.364 97.6641L69.0313 121.519C67.051 122.663 64.0488 122.786 62.3339 121.796Z" fill="#D4ECFF"/>
<path d="M110.364 96.6225L69.0313 120.477C67.0509 121.626 64.0488 121.749 62.3338 120.759L1.63338 85.7189C1.14429 85.4673 0.765013 85.0443 0.567976 84.5308C0.298654 85.3466 0.639266 86.1665 1.63338 86.7408L62.3338 121.784C64.0488 122.775 67.0509 122.652 69.0313 121.507L110.364 97.6523C111.695 96.8839 112.226 95.8502 111.913 94.9512C111.619 95.6794 111.068 96.2743 110.364 96.6225V96.6225Z" fill="white"/>
<path d="M27.4487 75.1481L24.704 73.5639C24.4822 73.4371 24.5099 73.2153 24.7673 73.0688L28.0071 71.1954C28.1377 71.1229 28.2834 71.082 28.4326 71.0758C28.5819 71.0696 28.7305 71.0984 28.8666 71.1598L31.6153 72.744C31.8331 72.8708 31.8054 73.0926 31.5519 73.2391L28.3121 75.1085C28.1818 75.1835 28.0354 75.2262 27.8852 75.2331C27.735 75.24 27.5853 75.2109 27.4487 75.1481V75.1481Z" fill="#5793CE"/>
<path d="M31.6985 77.5995L28.9538 76.0153C28.732 75.8886 28.7597 75.6668 29.0132 75.5202L32.2569 73.6468C32.3875 73.5744 32.5332 73.5334 32.6825 73.5272C32.8317 73.521 32.9803 73.5498 33.1164 73.6112L35.8651 75.1954C36.0829 75.3222 36.0552 75.544 35.8017 75.6905L32.558 77.5639C32.4274 77.6364 32.2817 77.6774 32.1325 77.6836C31.9832 77.6897 31.8346 77.661 31.6985 77.5995V77.5995Z" fill="#5793CE"/>
<path d="M35.9324 80.0472L33.1877 78.4629C32.9659 78.3362 32.9936 78.1104 33.2471 77.9639L36.4908 76.0945C36.6214 76.022 36.7671 75.981 36.9163 75.9748C37.0656 75.9686 37.2142 75.9974 37.3503 76.0588L40.095 77.6431C40.3168 77.7698 40.2891 77.9916 40.0356 78.1382L36.7918 80.0115C36.6613 80.084 36.5156 80.125 36.3663 80.1312C36.2171 80.1374 36.0685 80.1086 35.9324 80.0472V80.0472Z" fill="#5793CE"/>
<path d="M41.798 78.0235L39.0533 76.4392C38.8315 76.3125 38.8592 76.0907 39.1127 75.9442L41.8337 74.3599C41.9649 74.2874 42.1113 74.2464 42.2612 74.2402C42.411 74.234 42.5603 74.2628 42.6971 74.3243L45.4418 75.9085C45.6636 76.0352 45.6359 76.261 45.3784 76.4075L42.6575 77.9918C42.5272 78.0655 42.3812 78.1068 42.2316 78.1124C42.082 78.1179 41.9333 78.0874 41.798 78.0235V78.0235Z" fill="#5793CE"/>
<path d="M46.0399 80.4748L43.2952 78.8906C43.0734 78.7639 43.1011 78.5421 43.3546 78.3955L46.0755 76.8113C46.2061 76.7388 46.3518 76.6978 46.501 76.6916C46.6502 76.6854 46.7988 76.7142 46.935 76.7756L49.6836 78.3599C49.9054 78.4866 49.8777 78.7084 49.6203 78.855L46.8993 80.4392C46.7688 80.5117 46.623 80.5527 46.4738 80.5589C46.3246 80.565 46.176 80.5363 46.0399 80.4748V80.4748Z" fill="#5793CE"/>
<path d="M50.2816 82.9229L47.533 81.3386C47.3151 81.2079 47.3429 80.9861 47.5963 80.8396L50.3173 79.2553C50.4472 79.181 50.5931 79.139 50.7427 79.1328C50.8922 79.1266 51.0411 79.1564 51.1767 79.2197L53.9254 80.8039C54.1432 80.9307 54.1155 81.1525 53.862 81.299L51.1411 82.8833C51.0108 82.9564 50.8653 82.998 50.7161 83.0049C50.5668 83.0118 50.4181 82.9837 50.2816 82.9229V82.9229Z" fill="#5793CE"/>
<path d="M54.5235 85.3703L51.7748 83.786C51.557 83.6593 51.5847 83.4375 51.8382 83.287L54.5591 81.7028C54.6897 81.6303 54.8354 81.5893 54.9846 81.5831C55.1339 81.5769 55.2825 81.6057 55.4186 81.6671L58.1673 83.2514C58.3851 83.3781 58.3574 83.5999 58.1039 83.7504L55.3829 85.3346C55.2524 85.4071 55.1067 85.4481 54.9574 85.4543C54.8082 85.4605 54.6596 85.4317 54.5235 85.3703Z" fill="#5793CE"/>
<path d="M58.7653 87.818L56.0167 86.2337C55.7949 86.107 55.8226 85.8852 56.08 85.7387L58.801 84.1544C58.9315 84.0819 59.0773 84.0409 59.2265 84.0348C59.3757 84.0286 59.5243 84.0573 59.6604 84.1188L62.4051 85.703C62.6269 85.8337 62.5992 86.0555 62.3457 86.2021L59.6248 87.7863C59.4945 87.86 59.3485 87.9013 59.1989 87.9069C59.0494 87.9124 58.9007 87.8819 58.7653 87.818V87.818Z" fill="#5793CE"/>
<path d="M62.9874 90.2696L60.2427 88.6854C60.0209 88.5587 60.0486 88.3369 60.306 88.1903L63.027 86.6061C63.1576 86.5336 63.3033 86.4926 63.4525 86.4864C63.6017 86.4802 63.7503 86.509 63.8864 86.5704L66.6312 88.1547C66.8529 88.2814 66.8252 88.5032 66.5717 88.6497L63.8508 90.234C63.7195 90.3065 63.5732 90.3475 63.4233 90.3537C63.2734 90.3599 63.1242 90.3311 62.9874 90.2696V90.2696Z" fill="#5793CE"/>
<path d="M67.245 92.7173L64.5003 91.133C64.2785 91.0063 64.3062 90.7805 64.5597 90.634L67.2846 89.0498C67.4145 88.9754 67.5604 88.9334 67.71 88.9272C67.8595 88.921 68.0084 88.9508 68.1441 89.0141L70.8888 90.5984C71.1106 90.7251 71.0828 90.9469 70.8294 91.0934L68.1084 92.6777C67.9774 92.7508 67.8312 92.7925 67.6814 92.7994C67.5315 92.8063 67.3821 92.7782 67.245 92.7173Z" fill="#5793CE"/>
<path d="M71.4869 95.1651L68.7422 93.5808C68.5204 93.4541 68.5481 93.2323 68.8016 93.0858L71.5225 91.5015C71.6538 91.429 71.8002 91.388 71.95 91.3818C72.0999 91.3756 72.2491 91.4044 72.3859 91.4659L75.1306 93.0501C75.3524 93.1769 75.3247 93.3986 75.0673 93.5492L72.3463 95.1334C72.2154 95.2053 72.0696 95.2456 71.9203 95.2511C71.7711 95.2566 71.6227 95.2271 71.4869 95.1651V95.1651Z" fill="#5793CE"/>
<path d="M75.7287 97.6007L72.9839 96.0164C72.7621 95.8897 72.7899 95.6679 73.0433 95.5214L75.7643 93.9371C75.8949 93.8646 76.0406 93.8237 76.1898 93.8175C76.339 93.8113 76.4876 93.84 76.6237 93.9015L79.3724 95.4857C79.5942 95.6164 79.5665 95.8382 79.3091 95.9848L76.5881 97.569C76.4572 97.6409 76.3114 97.6812 76.1621 97.6867C76.0129 97.6922 75.8645 97.6627 75.7287 97.6007V97.6007Z" fill="#5793CE"/>
<path d="M79.9705 100.064L77.2218 98.48C77.004 98.3532 77.0317 98.1314 77.2852 97.9849L80.0061 96.4006C80.1367 96.3281 80.2824 96.2872 80.4316 96.281C80.5809 96.2748 80.7294 96.3035 80.8656 96.365L83.6143 97.9492C83.8321 98.076 83.8044 98.2978 83.5509 98.4443L80.8299 100.029C80.6994 100.101 80.5536 100.142 80.4044 100.148C80.2552 100.154 80.1066 100.126 79.9705 100.064Z" fill="#5793CE"/>
<path d="M48.0479 76.8669L45.3032 75.2827C45.0814 75.1559 45.1091 74.9341 45.3626 74.7876L48.0835 73.2034C48.2141 73.1309 48.3598 73.0899 48.509 73.0837C48.6582 73.0775 48.8068 73.1063 48.943 73.1677L51.6916 74.752C51.9134 74.8787 51.8857 75.1005 51.6283 75.247L48.9073 76.8313C48.7767 76.9038 48.631 76.9447 48.4818 76.9509C48.3326 76.9571 48.184 76.9284 48.0479 76.8669Z" fill="#5793CE"/>
<path d="M43.7427 74.3796L40.998 72.7954C40.7762 72.6686 40.8039 72.4468 41.0574 72.2963L43.7783 70.7121C43.9096 70.6395 44.056 70.5986 44.2058 70.5924C44.3557 70.5862 44.5049 70.615 44.6417 70.6764L47.3865 72.2607C47.6083 72.3874 47.5805 72.6092 47.3231 72.7597L44.6021 74.344C44.4716 74.4165 44.3259 74.4574 44.1766 74.4636C44.0274 74.4698 43.8788 74.4411 43.7427 74.3796V74.3796Z" fill="#5793CE"/>
<path d="M39.4335 71.8923L33.5164 68.4743C33.2946 68.3476 33.3223 68.1258 33.5797 67.9793L36.3007 66.395C36.4313 66.3225 36.577 66.2815 36.7262 66.2754C36.8754 66.2692 37.024 66.2979 37.1602 66.3594L43.0734 69.7774C43.2952 69.9041 43.2674 70.1259 43.014 70.2725L40.293 71.8567C40.1624 71.9292 40.0167 71.9702 39.8675 71.9764C39.7183 71.9825 39.5697 71.9538 39.4335 71.8923V71.8923Z" fill="#5793CE"/>
<path d="M42.4436 68.8624L37.6433 66.09C37.4255 65.9593 37.4532 65.7375 37.7067 65.5909L40.4276 64.0067C40.5575 63.9323 40.7034 63.8903 40.853 63.8841C41.0026 63.8779 41.1514 63.9077 41.2871 63.971L46.0873 66.7435C46.3091 66.8702 46.2814 67.096 46.0279 67.2425L43.307 68.8267C43.176 68.9002 43.0296 68.9417 42.8795 68.9479C42.7295 68.9541 42.5801 68.9248 42.4436 68.8624V68.8624Z" fill="#5793CE"/>
<path d="M52.2937 79.3146L49.545 77.7303C49.3272 77.5996 49.3549 77.3778 49.6084 77.2313L52.3293 75.6471C52.4592 75.5727 52.6051 75.5307 52.7547 75.5245C52.9043 75.5183 53.0531 75.5481 53.1888 75.6114L55.9374 77.1957C56.1553 77.3224 56.1275 77.5442 55.8741 77.6907L53.1531 79.275C53.0229 79.3481 52.8773 79.3898 52.7281 79.3967C52.5789 79.4035 52.4301 79.3754 52.2937 79.3146V79.3146Z" fill="#5793CE"/>
<path d="M56.5315 81.7582L53.7828 80.174C53.565 80.0472 53.5927 79.8254 53.8462 79.6749L56.5671 78.0907C56.6977 78.0182 56.8434 77.9772 56.9926 77.971C57.1419 77.9648 57.2905 77.9936 57.4266 78.055L60.1753 79.6393C60.3931 79.766 60.3654 79.9878 60.1119 80.1383L57.3909 81.7226C57.2604 81.7951 57.1147 81.8361 56.9654 81.8422C56.8162 81.8484 56.6676 81.8197 56.5315 81.7582V81.7582Z" fill="#5793CE"/>
<path d="M60.7733 84.21L58.0247 82.6257C57.8029 82.499 57.8306 82.2772 58.0881 82.1306L60.809 80.5464C60.9396 80.4739 61.0853 80.4329 61.2345 80.4267C61.3837 80.4205 61.5323 80.4493 61.6684 80.5107L64.4132 82.095C64.6349 82.2257 64.6072 82.4475 64.3537 82.594L61.6328 84.1783C61.5022 84.251 61.3563 84.2918 61.2069 84.2974C61.0575 84.3029 60.9089 84.2729 60.7733 84.21V84.21Z" fill="#5793CE"/>
<path d="M65.0112 86.6615L62.2665 85.0772C62.0447 84.9505 62.0724 84.7287 62.3298 84.5822L65.0508 82.9979C65.1814 82.9254 65.3271 82.8845 65.4763 82.8783C65.6255 82.8721 65.7741 82.9008 65.9102 82.9623L68.655 84.5465C68.8768 84.6733 68.849 84.8951 68.5956 85.0416L65.8746 86.6258C65.7433 86.6984 65.597 86.7394 65.4471 86.7456C65.2972 86.7517 65.148 86.723 65.0112 86.6615Z" fill="#5793CE"/>
<path d="M69.253 89.1092L66.5083 87.5249C66.2865 87.3982 66.3143 87.1724 66.5677 87.0259L69.2926 85.4416C69.4226 85.3673 69.5685 85.3252 69.718 85.319C69.8676 85.3128 70.0165 85.3427 70.1521 85.406L72.8968 86.9902C73.1186 87.117 73.0909 87.3388 72.8374 87.4853L70.1165 89.0696C69.9855 89.1427 69.8393 89.1844 69.6894 89.1913C69.5396 89.1981 69.3902 89.17 69.253 89.1092Z" fill="#5793CE"/>
<path d="M73.4949 91.5568L70.7502 89.9726C70.5284 89.8458 70.5561 89.624 70.8096 89.4775L73.5305 87.8932C73.6618 87.8207 73.8082 87.7797 73.958 87.7735C74.1079 87.7673 74.2571 87.7961 74.3939 87.8576L77.1386 89.4418C77.3604 89.5686 77.3327 89.7904 77.0753 89.9409L74.3543 91.5251C74.2234 91.597 74.0776 91.6373 73.9284 91.6428C73.7791 91.6483 73.6307 91.6188 73.4949 91.5568Z" fill="#5793CE"/>
<path d="M77.7367 94.0084L74.992 92.4242C74.7702 92.2974 74.7979 92.0756 75.0514 91.9291L77.7724 90.3448C77.9029 90.2723 78.0486 90.2314 78.1979 90.2252C78.3471 90.219 78.4957 90.2478 78.6318 90.3092L81.3805 91.8934C81.6023 92.0241 81.5745 92.2459 81.3171 92.3925L78.5962 93.9767C78.4653 94.0486 78.3194 94.0889 78.1702 94.0944C78.021 94.0999 77.8725 94.0705 77.7367 94.0084Z" fill="#5793CE"/>
<path d="M81.9983 96.456L79.2496 94.8718C79.0318 94.745 79.0595 94.5233 79.313 94.3767L82.0339 92.7925C82.1645 92.72 82.3102 92.679 82.4594 92.6728C82.6086 92.6666 82.7572 92.6954 82.8934 92.7568L85.642 94.3411C85.8599 94.4678 85.8322 94.6896 85.5787 94.8361L82.8577 96.4204C82.7272 96.4929 82.5814 96.5339 82.4322 96.54C82.283 96.5462 82.1344 96.5175 81.9983 96.456Z" fill="#5793CE"/>
<path d="M86.2204 98.9038L83.4717 97.3196C83.2539 97.1928 83.2816 96.9671 83.5351 96.8205L86.256 95.2363C86.3863 95.1629 86.5321 95.1214 86.6814 95.1152C86.8308 95.109 86.9796 95.1383 87.1155 95.2006L89.8641 96.7849C90.082 96.9116 90.0542 97.1334 89.8008 97.28L87.0798 98.8642C86.9495 98.9373 86.804 98.979 86.6548 98.9859C86.5056 98.9928 86.3568 98.9647 86.2204 98.9038V98.9038Z" fill="#5793CE"/>
<path d="M93.7613 103.256L87.7649 99.7988C87.5471 99.6721 87.5748 99.4463 87.8283 99.2998L90.5492 97.7155C90.6792 97.6412 90.8251 97.5992 90.9746 97.593C91.1242 97.5868 91.2731 97.6166 91.4087 97.6799L97.4011 101.165C97.6229 101.292 97.5952 101.514 97.3417 101.664L94.6208 103.249C94.488 103.317 94.3412 103.353 94.192 103.354C94.0428 103.356 93.8953 103.322 93.7613 103.256V103.256Z" fill="#5793CE"/>
<path d="M102.015 98.492L96.9576 95.5691C96.7398 95.4423 96.7675 95.2205 97.021 95.074L99.7419 93.4897C99.8725 93.4172 100.018 93.3763 100.167 93.3701C100.317 93.3639 100.465 93.3927 100.601 93.4541L105.659 96.3731C105.881 96.5038 105.853 96.7256 105.6 96.8721L102.879 98.4564C102.747 98.5289 102.601 98.5699 102.451 98.5761C102.301 98.5823 102.152 98.5535 102.015 98.492Z" fill="#5793CE"/>
<path d="M59.7159 78.8352L56.9712 77.251C56.7494 77.1242 56.7771 76.8985 57.0306 76.7519L59.7515 75.1677C59.8822 75.0933 60.0287 75.0513 60.1789 75.0451C60.3291 75.0389 60.4786 75.0687 60.615 75.1321L63.3597 76.7163C63.5815 76.843 63.5537 77.0648 63.2963 77.2114L60.5754 78.7956C60.4451 78.8687 60.2995 78.9104 60.1503 78.9173C60.0011 78.9242 59.8523 78.8961 59.7159 78.8352V78.8352Z" fill="#5793CE"/>
<path d="M55.3711 76.3243L52.6224 74.7401C52.4045 74.6133 52.4323 74.3915 52.6858 74.245L55.4067 72.6607C55.5376 72.5939 55.6821 72.5581 55.8291 72.556C55.9761 72.5539 56.1215 72.5857 56.2543 72.6488L59.0029 74.2331C59.2208 74.3598 59.1931 74.5856 58.9396 74.7321L56.2186 76.3164C56.0877 76.3835 55.9429 76.4191 55.7958 76.4205C55.6486 76.4219 55.5032 76.389 55.3711 76.3243V76.3243Z" fill="#5793CE"/>
<path d="M51.0223 73.837L48.2776 72.2527C48.0558 72.126 48.0835 71.9042 48.337 71.7576L51.0579 70.1734C51.1892 70.1009 51.3356 70.0599 51.4854 70.0537C51.6353 70.0475 51.7845 70.0763 51.9213 70.1377L54.6661 71.722C54.8879 71.8487 54.8601 72.0705 54.6027 72.2171L51.8817 73.8013C51.7512 73.8738 51.6055 73.9148 51.4562 73.921C51.307 73.9271 51.1584 73.8984 51.0223 73.837Z" fill="#5793CE"/>
<path d="M46.6775 71.3063L43.9289 69.722C43.711 69.5953 43.7388 69.3695 43.9922 69.223L46.7132 67.6388C46.8434 67.5654 46.9892 67.5239 47.1386 67.5177C47.288 67.5115 47.4367 67.5407 47.5726 67.6031L50.3213 69.1873C50.5391 69.3141 50.5114 69.5359 50.2579 69.6824L47.537 71.2667C47.4067 71.3398 47.2612 71.3815 47.112 71.3883C46.9627 71.3952 46.814 71.3671 46.6775 71.3063V71.3063Z" fill="#5793CE"/>
<path d="M63.9576 81.2829L61.2129 79.6987C60.9912 79.572 61.0189 79.3502 61.2724 79.2036L63.9933 77.6194C64.1239 77.5469 64.2696 77.5059 64.4188 77.4997C64.568 77.4935 64.7166 77.5223 64.8527 77.5837L67.6014 79.168C67.8232 79.2947 67.7955 79.5165 67.538 79.667L64.8171 81.2513C64.6862 81.3231 64.5403 81.3634 64.3911 81.3689C64.2419 81.3744 64.0935 81.345 63.9576 81.2829V81.2829Z" fill="#5793CE"/>
<path d="M68.1995 83.7386L65.4508 82.1544C65.233 82.0277 65.2607 81.8059 65.5142 81.6593L68.2352 80.0751C68.3657 80.0026 68.5114 79.9616 68.6607 79.9554C68.8099 79.9492 68.9585 79.978 69.0946 80.0394L71.8433 81.6237C72.0611 81.7544 72.0334 81.9762 71.7799 82.1227L69.059 83.707C68.9281 83.7788 68.7822 83.8191 68.633 83.8246C68.4838 83.8301 68.3353 83.8007 68.1995 83.7386V83.7386Z" fill="#5793CE"/>
<path d="M72.4413 86.1824L69.6927 84.5981C69.4748 84.4714 69.5026 84.2496 69.756 84.103L72.477 82.5188C72.6076 82.4463 72.7533 82.4053 72.9025 82.3991C73.0517 82.3929 73.2003 82.4217 73.3364 82.4831L76.0851 84.0674C76.303 84.1941 76.2752 84.4159 76.0218 84.5625L73.3008 86.1467C73.1702 86.2192 73.0245 86.2602 72.8753 86.2664C72.7261 86.2726 72.5775 86.2438 72.4413 86.1824Z" fill="#5793CE"/>
<path d="M76.6832 88.63L73.9345 87.0458C73.7167 86.919 73.7404 86.6933 73.9979 86.5467L76.7188 84.9625C76.8488 84.8881 76.9947 84.8461 77.1442 84.8399C77.2938 84.8337 77.4426 84.8635 77.5783 84.9268L80.327 86.5111C80.5448 86.6378 80.5171 86.8596 80.2636 87.0062L77.5426 88.5904C77.4124 88.6635 77.2668 88.7052 77.1176 88.7121C76.9684 88.7189 76.8196 88.6908 76.6832 88.63Z" fill="#5793CE"/>
<path d="M80.921 91.0776L78.1763 89.4934C77.9545 89.3666 77.9822 89.1448 78.2397 88.9983L80.9606 87.4141C81.0912 87.3416 81.2369 87.3006 81.3861 87.2944C81.5354 87.2882 81.684 87.317 81.8201 87.3784L84.5648 88.9627C84.7866 89.0894 84.7589 89.3152 84.5054 89.4617L81.7844 91.0459C81.6529 91.1179 81.5063 91.1582 81.3565 91.1637C81.2066 91.1692 81.0575 91.1397 80.921 91.0776V91.0776Z" fill="#5793CE"/>
<path d="M85.1668 93.5292L82.4221 91.9449C82.2003 91.8182 82.228 91.5964 82.4855 91.4498L85.2064 89.8656C85.337 89.7931 85.4827 89.7521 85.6319 89.7459C85.7812 89.7398 85.9298 89.7685 86.0659 89.83L88.8106 91.4142C89.0324 91.5409 89.0047 91.7627 88.7512 91.9093L86.0302 93.4935C85.899 93.5661 85.7526 93.6071 85.6027 93.6132C85.4529 93.6194 85.3036 93.5906 85.1668 93.5292Z" fill="#5793CE"/>
<path d="M89.4047 95.9769L86.66 94.3927C86.4382 94.262 86.466 94.0402 86.7194 93.8936L89.4404 92.3094C89.5717 92.2368 89.718 92.1959 89.8679 92.1897C90.0177 92.1835 90.167 92.2123 90.3038 92.2737L93.0485 93.858C93.2703 93.9847 93.2426 94.2065 92.9851 94.3531L90.2642 95.9373C90.1339 96.0104 89.9884 96.0521 89.8392 96.059C89.6899 96.0658 89.5412 96.0377 89.4047 95.9769Z" fill="#5793CE"/>
<path d="M93.6465 98.4245L90.9018 96.8403C90.68 96.7135 90.7077 96.4878 90.9612 96.3413L93.6821 94.757C93.8134 94.6845 93.9598 94.6435 94.1096 94.6373C94.2595 94.6311 94.4087 94.6599 94.5455 94.7214L97.2902 96.3056C97.512 96.4324 97.4843 96.6541 97.2269 96.8007L94.5059 98.3849C94.3757 98.4581 94.2301 98.4997 94.0809 98.5066C93.9317 98.5135 93.7829 98.4854 93.6465 98.4245Z" fill="#5793CE"/>
<path d="M97.8883 100.872L95.1396 99.2879C94.9218 99.1612 94.9495 98.9394 95.203 98.7929L97.9239 97.2086C98.0545 97.1361 98.2002 97.0951 98.3494 97.089C98.4987 97.0828 98.6473 97.1115 98.7834 97.173L101.532 98.7572C101.75 98.884 101.722 99.1097 101.469 99.2562L98.7477 100.84C98.6172 100.913 98.4712 100.954 98.3218 100.96C98.1724 100.965 98.0239 100.935 97.8883 100.872V100.872Z" fill="#5793CE"/>
<path d="M57.4821 72.7795L54.7374 71.1953C54.5156 71.0685 54.5434 70.8467 54.7968 70.7002L57.5217 69.116C57.6523 69.0435 57.798 69.0025 57.9472 68.9963C58.0965 68.9901 58.2451 69.0189 58.3812 69.0803L61.1259 70.6646C61.3477 70.7913 61.32 71.0131 61.0665 71.1596L58.3455 72.7439C58.2143 72.8164 58.0679 72.8574 57.918 72.8636C57.7682 72.8698 57.6189 72.841 57.4821 72.7795Z" fill="#5793CE"/>
<path d="M53.264 70.3436L50.5153 68.7594C50.2975 68.6326 50.3252 68.4108 50.5787 68.2643L53.2996 66.68C53.4302 66.6076 53.5759 66.5666 53.7252 66.5604C53.8744 66.5542 54.023 66.583 54.1591 66.6444L56.9078 68.2286C57.1256 68.3554 57.0979 68.5772 56.8444 68.7237L54.1235 70.308C53.9929 70.3805 53.8472 70.4214 53.698 70.4276C53.5487 70.4338 53.4001 70.405 53.264 70.3436V70.3436Z" fill="#5793CE"/>
<path d="M49.042 67.896L46.2973 66.3118C46.0755 66.1851 46.1032 65.9633 46.3567 65.8167L49.0777 64.2325C49.2089 64.1599 49.3553 64.1189 49.5052 64.1128C49.655 64.1066 49.8042 64.1354 49.9411 64.1968L52.6858 65.7811C52.9076 65.9078 52.8798 66.1336 52.6264 66.2801L49.9015 67.8644C49.7712 67.9381 49.6252 67.9794 49.4756 67.9849C49.326 67.9904 49.1773 67.96 49.042 67.896V67.896Z" fill="#5793CE"/>
<path d="M44.8239 65.4683L42.0752 63.8841C41.8574 63.7573 41.8851 63.5355 42.1386 63.385L44.8595 61.8008C44.9901 61.7283 45.1358 61.6873 45.2851 61.6811C45.4343 61.6749 45.5829 61.7037 45.719 61.7651L48.4677 63.3494C48.6855 63.4761 48.6578 63.6979 48.4043 63.8484L45.6834 65.4327C45.5528 65.5052 45.4071 65.5461 45.2579 65.5523C45.1086 65.5585 44.96 65.5297 44.8239 65.4683V65.4683Z" fill="#5793CE"/>
<path d="M49.1608 62.965L46.4161 61.3807C46.1943 61.254 46.2221 61.0322 46.4795 60.8857L47.3786 60.3668C47.5091 60.2943 47.6548 60.2534 47.8041 60.2472C47.9533 60.241 48.1019 60.2697 48.238 60.3312L50.9827 61.9154C51.2045 62.0421 51.1768 62.2639 50.9233 62.4105L50.0243 62.9333C49.8927 63.0052 49.7461 63.0455 49.5963 63.051C49.4464 63.0565 49.2973 63.027 49.1608 62.965V62.965Z" fill="#5793CE"/>
<path d="M54.67 66.1416L51.9213 64.5573C51.7035 64.4306 51.7312 64.2088 51.9847 64.0623L52.8838 63.5434C53.0137 63.4691 53.1596 63.4271 53.3091 63.4208C53.4587 63.4146 53.6076 63.4445 53.7432 63.5078L56.4919 65.092C56.7137 65.2188 56.686 65.4406 56.4285 65.5871L55.5295 66.1059C55.3995 66.1803 55.2536 66.2223 55.1041 66.2285C54.9545 66.2347 54.8057 66.2049 54.67 66.1416V66.1416Z" fill="#5793CE"/>
<path d="M58.8723 68.5694L56.1276 66.9852C55.9058 66.8585 55.9335 66.6327 56.187 66.4862L57.086 65.9673C57.2173 65.8948 57.3637 65.8538 57.5135 65.8476C57.6634 65.8414 57.8126 65.8702 57.9494 65.9317L60.6942 67.5159C60.916 67.6427 60.8882 67.8645 60.6308 68.011L59.7317 68.5298C59.6015 68.603 59.4559 68.6446 59.3067 68.6515C59.1575 68.6584 59.0087 68.6303 58.8723 68.5694V68.5694Z" fill="#5793CE"/>
<path d="M63.0744 70.9974L60.3297 69.4131C60.1079 69.2864 60.1357 69.0646 60.3891 68.9181L61.2882 68.3992C61.4195 68.3267 61.5659 68.2857 61.7157 68.2795C61.8656 68.2733 62.0148 68.3021 62.1516 68.3636L64.8963 69.9478C65.1181 70.0746 65.0904 70.2964 64.833 70.4469L63.9339 70.9657C63.803 71.0376 63.6571 71.0779 63.5079 71.0834C63.3587 71.0889 63.2103 71.0594 63.0744 70.9974V70.9974Z" fill="#5793CE"/>
<path d="M67.2767 73.441L64.532 71.8568C64.3102 71.73 64.3379 71.5083 64.5914 71.3617L65.4905 70.8389C65.6218 70.7664 65.7681 70.7254 65.918 70.7192C66.0678 70.713 66.2171 70.7418 66.3539 70.8033L69.0986 72.3875C69.3204 72.5142 69.2927 72.736 69.0392 72.8826L68.1362 73.3856C68.0072 73.4612 67.8623 73.5056 67.713 73.5153C67.5638 73.5249 67.4144 73.4995 67.2767 73.441Z" fill="#5793CE"/>
<path d="M90.7394 86.9664L87.9947 85.3822C87.7729 85.2554 87.8006 85.0336 88.0541 84.8871L88.9532 84.3683C89.0838 84.2939 89.2304 84.2519 89.3806 84.2457C89.5308 84.2395 89.6803 84.2693 89.8166 84.3326L92.5613 85.9169C92.7831 86.0436 92.7554 86.2654 92.4979 86.4119L91.5989 86.9308C91.4689 87.0051 91.3231 87.0471 91.1735 87.0533C91.0239 87.0595 90.8751 87.0297 90.7394 86.9664V86.9664Z" fill="#5793CE"/>
<path d="M94.9416 89.3944L92.1969 87.8101C91.9751 87.6834 92.0029 87.4576 92.2563 87.3111L93.1594 86.7922C93.2899 86.7197 93.4356 86.6788 93.5849 86.6726C93.7341 86.6664 93.8827 86.6952 94.0188 86.7566L96.7635 88.3408C96.9853 88.4676 96.9576 88.6894 96.7041 88.8359L95.8011 89.3547C95.6708 89.4279 95.5253 89.4695 95.3761 89.4764C95.2268 89.4833 95.0781 89.4552 94.9416 89.3944V89.3944Z" fill="#5793CE"/>
<path d="M99.1438 91.8222L96.3991 90.2379C96.1773 90.1112 96.205 89.8894 96.4585 89.7428L97.3615 89.224C97.4921 89.1515 97.6378 89.1105 97.787 89.1043C97.9363 89.0982 98.0849 89.1269 98.221 89.1883L100.966 90.7726C101.187 90.8993 101.16 91.1211 100.906 91.2716L100.007 91.7905C99.8756 91.8624 99.7291 91.9027 99.5793 91.9082C99.4294 91.9137 99.2803 91.8842 99.1438 91.8222V91.8222Z" fill="#5793CE"/>
<path d="M103.346 94.2461L100.601 92.6618C100.38 92.5351 100.407 92.3133 100.665 92.1667L101.564 91.6598C101.694 91.5873 101.84 91.5463 101.989 91.5401C102.139 91.5339 102.287 91.5627 102.423 91.6241L105.168 93.2084C105.39 93.3351 105.362 93.5569 105.109 93.7035L104.209 94.2223C104.078 94.2939 103.931 94.3333 103.781 94.3374C103.631 94.3416 103.482 94.3103 103.346 94.2461V94.2461Z" fill="#5793CE"/>
<path d="M61.7239 75.2272L58.9792 73.6429C58.7574 73.5162 58.7851 73.2905 59.0386 73.1439L61.7595 71.5597C61.8902 71.4853 62.0367 71.4433 62.1869 71.4371C62.3371 71.4309 62.4866 71.4607 62.623 71.524L65.3677 73.1083C65.5895 73.235 65.5617 73.4568 65.3043 73.6033L62.5833 75.1876C62.4531 75.2607 62.3075 75.3024 62.1583 75.3092C62.0091 75.3161 61.8603 75.288 61.7239 75.2272V75.2272Z" fill="#5793CE"/>
<path d="M65.9657 77.6749L63.221 76.0907C62.9992 75.9639 63.027 75.7421 63.2804 75.5956L66.0014 74.0113C66.132 73.9389 66.2777 73.8979 66.4269 73.8917C66.5761 73.8855 66.7247 73.9143 66.8608 73.9757L69.6095 75.56C69.8313 75.6867 69.8036 75.9085 69.5461 76.059L66.8252 77.6432C66.6943 77.7151 66.5484 77.7554 66.3992 77.7609C66.25 77.7664 66.1016 77.737 65.9657 77.6749V77.6749Z" fill="#5793CE"/>
<path d="M70.2075 80.1267L67.4588 78.5425C67.241 78.4157 67.2687 78.1939 67.5222 78.0474L70.2432 76.4631C70.3737 76.3906 70.5194 76.3497 70.6687 76.3435C70.8179 76.3373 70.9665 76.366 71.1026 76.4275L73.8513 78.0117C74.0691 78.1424 74.0414 78.3642 73.7879 78.5108L71.067 80.095C70.9361 80.1669 70.7902 80.2072 70.641 80.2127C70.4918 80.2182 70.3433 80.1887 70.2075 80.1267V80.1267Z" fill="#5793CE"/>
<path d="M74.4494 82.5741L71.7007 80.9898C71.4829 80.8631 71.5106 80.6413 71.7641 80.4948L74.485 78.9105C74.6156 78.838 74.7613 78.7971 74.9105 78.7909C75.0597 78.7847 75.2083 78.8134 75.3445 78.8749L78.0931 80.4591C78.311 80.5859 78.2832 80.8077 78.0298 80.9542L75.3088 82.5385C75.1782 82.6109 75.0325 82.6519 74.8833 82.6581C74.7341 82.6643 74.5855 82.6355 74.4494 82.5741V82.5741Z" fill="#5793CE"/>
<path d="M78.6912 85.0218L75.9426 83.4375C75.7208 83.3108 75.7485 83.085 76.0059 82.9385L78.7269 81.3542C78.8574 81.2818 79.0031 81.2408 79.1524 81.2346C79.3016 81.2284 79.4502 81.2572 79.5863 81.3186L82.331 82.9028C82.5528 83.0296 82.5251 83.2514 82.2716 83.3979L79.5507 84.9822C79.4204 85.0553 79.2749 85.097 79.1256 85.1038C78.9764 85.1107 78.8277 85.0826 78.6912 85.0218V85.0218Z" fill="#5793CE"/>
<path d="M82.9291 87.4693L80.1844 85.8851C79.9626 85.7584 79.9903 85.5366 80.2477 85.39L82.9687 83.8058C83.0993 83.7333 83.245 83.6923 83.3942 83.6861C83.5434 83.6799 83.692 83.7087 83.8281 83.7701L86.5729 85.3544C86.7946 85.4811 86.7669 85.7069 86.5134 85.8534L83.7925 87.4377C83.6612 87.5105 83.5146 87.5513 83.3646 87.5568C83.2146 87.5623 83.0654 87.5323 82.9291 87.4693V87.4693Z" fill="#5793CE"/>
<path d="M87.1709 89.9211L84.4262 88.3369C84.2044 88.2101 84.2321 87.9884 84.4856 87.8418L87.2105 86.2576C87.3411 86.1851 87.4868 86.1441 87.636 86.1379C87.7852 86.1317 87.9338 86.1605 88.07 86.2219L90.8147 87.8062C91.0365 87.9329 91.0088 88.1547 90.7553 88.3012L88.0343 89.8855C87.9031 89.958 87.7567 89.999 87.6068 90.0052C87.457 90.0114 87.3077 89.9826 87.1709 89.9211V89.9211Z" fill="#5793CE"/>
<path d="M91.4127 92.3688L88.668 90.7845C88.4462 90.6538 88.474 90.432 88.7274 90.2855L91.4484 88.7012C91.5797 88.6287 91.726 88.5877 91.8759 88.5815C92.0257 88.5753 92.175 88.6041 92.3118 88.6656L95.0565 90.2498C95.2783 90.3766 95.2506 90.5984 94.9931 90.7449L92.2722 92.3291C92.1419 92.4023 91.9964 92.4439 91.8472 92.4508C91.6979 92.4577 91.5492 92.4296 91.4127 92.3688Z" fill="#5793CE"/>
<path d="M95.6546 94.8283L92.9099 93.2441C92.6881 93.1173 92.7158 92.8955 92.9693 92.745L95.6902 91.1608C95.8208 91.0883 95.9665 91.0473 96.1157 91.0411C96.265 91.0349 96.4136 91.0637 96.5497 91.1251L99.2984 92.7094C99.5202 92.8361 99.4924 93.0579 99.235 93.2044L96.514 94.7887C96.3838 94.8618 96.2382 94.9035 96.089 94.9104C95.9398 94.9172 95.791 94.8891 95.6546 94.8283Z" fill="#5793CE"/>
<path d="M37.477 75.5283L29.3894 70.8587C29.1676 70.7319 29.1954 70.5101 29.4488 70.3636L32.1698 68.7793C32.3011 68.7068 32.4474 68.6658 32.5973 68.6596C32.7471 68.6534 32.8964 68.6822 33.0332 68.7437L41.1208 73.441C41.3386 73.5677 41.3109 73.7935 41.0574 73.94L38.3365 75.5243C38.2037 75.5927 38.0566 75.6287 37.9072 75.6294C37.7578 75.6301 37.6104 75.5955 37.477 75.5283V75.5283Z" fill="#5793CE"/>
<path d="M89.5829 105.613L81.4913 100.944C81.2735 100.817 81.3012 100.595 81.5547 100.444L84.2757 98.8602C84.4062 98.7877 84.5519 98.7468 84.7012 98.7406C84.8504 98.7344 84.999 98.7631 85.1351 98.8246L93.2266 103.494C93.4445 103.621 93.4168 103.843 93.1633 103.989L90.4423 105.573C90.3121 105.647 90.1665 105.688 90.0173 105.695C89.8681 105.702 89.7193 105.674 89.5829 105.613V105.613Z" fill="#5793CE"/>
<path d="M72.6196 101.229L69.8748 99.6444C69.653 99.5177 69.6808 99.2919 69.9342 99.1454L73.178 97.276C73.3086 97.2035 73.4543 97.1625 73.6035 97.1563C73.7527 97.1502 73.9013 97.1789 74.0375 97.2403L76.7822 98.8246C77.004 98.9513 76.9762 99.1731 76.7228 99.3197L73.479 101.193C73.3484 101.266 73.2027 101.307 73.0535 101.313C72.9043 101.319 72.7557 101.29 72.6196 101.229V101.229Z" fill="#5793CE"/>
<path d="M41.8178 83.4453L37.4294 80.9106C37.2076 80.7838 37.2354 80.562 37.4888 80.4155L40.7326 78.5421C40.8632 78.4696 41.0089 78.4286 41.1581 78.4225C41.3073 78.4163 41.4559 78.445 41.592 78.5065L45.9844 81.0413C46.2022 81.168 46.1745 81.3937 45.921 81.5403L42.6812 83.4097C42.5499 83.4822 42.4036 83.5232 42.2537 83.5294C42.1038 83.5356 41.9546 83.5068 41.8178 83.4453V83.4453Z" fill="#5793CE"/>
<path d="M68.5322 98.8681L64.1399 96.3333C63.922 96.2066 63.9498 95.9848 64.2032 95.8382L67.443 93.9649C67.5743 93.8924 67.7207 93.8514 67.8705 93.8452C68.0204 93.839 68.1696 93.8678 68.3064 93.9292L72.6988 96.464C72.9166 96.5947 72.8889 96.8165 72.6354 96.9631L69.3956 98.8325C69.2643 98.905 69.118 98.946 68.9681 98.9522C68.8183 98.9584 68.669 98.9296 68.5322 98.8681V98.8681Z" fill="#5793CE"/>
<path d="M47.937 86.9783L43.5446 84.4435C43.3228 84.3168 43.3506 84.095 43.604 83.9484L46.8478 82.0751C46.9784 82.0026 47.1241 81.9616 47.2733 81.9554C47.4225 81.9492 47.5711 81.978 47.7073 82.0394L52.0996 84.5742C52.3214 84.701 52.2937 84.9267 52.0362 85.0732L48.7964 86.9427C48.6658 87.0151 48.5201 87.0561 48.3709 87.0623C48.2217 87.0685 48.0731 87.0397 47.937 86.9783V86.9783Z" fill="#5793CE"/>
<path d="M47.7389 82.0553L66.837 93.0817C67.0746 93.2203 67.0746 93.4421 66.837 93.5767L63.5299 95.4858C63.3977 95.5542 63.251 95.5899 63.1021 95.5899C62.9533 95.5899 62.8066 95.5542 62.6744 95.4858L43.5803 84.4594L47.7389 82.0553Z" fill="#5793CE"/>
<path d="M84.4737 105.669L87.5313 107.435C87.7135 107.538 87.6898 107.72 87.4838 107.831L86.157 108.596C86.0496 108.654 85.9301 108.687 85.8078 108.692C85.6854 108.697 85.5637 108.673 85.452 108.623L82.3944 106.869C82.2162 106.766 82.236 106.584 82.4459 106.473L83.7727 105.704C83.879 105.645 83.9975 105.611 84.1191 105.605C84.2406 105.598 84.362 105.62 84.4737 105.669V105.669Z" fill="#5793CE"/>
<path d="M80.1962 103.201L83.2578 104.968C83.436 105.071 83.4162 105.253 83.2063 105.364L81.8795 106.132C81.7721 106.191 81.6526 106.224 81.5303 106.229C81.4079 106.233 81.2862 106.21 81.1745 106.16L78.1169 104.393C77.9347 104.29 77.9585 104.108 78.1644 103.997L79.4912 103.233C79.5983 103.173 79.7177 103.14 79.84 103.134C79.9623 103.129 80.0843 103.152 80.1962 103.201V103.201Z" fill="#5793CE"/>
<path d="M75.9544 100.769L79.0159 102.536C79.1941 102.643 79.1743 102.825 78.9644 102.932L77.6416 103.688C77.5345 103.748 77.4151 103.781 77.2928 103.787C77.1705 103.792 77.0486 103.769 76.9366 103.72L73.875 101.957C73.6928 101.85 73.7166 101.668 73.9265 101.561L75.2652 100.769C75.3727 100.717 75.4904 100.69 75.6098 100.69C75.7291 100.69 75.8469 100.717 75.9544 100.769V100.769Z" fill="#5793CE"/>
<path d="M82.541 101.847L85.5986 103.613C85.7807 103.72 85.757 103.902 85.5471 104.009L84.2203 104.774C84.1132 104.833 83.9938 104.867 83.8715 104.872C83.7492 104.878 83.6272 104.855 83.5153 104.805L80.4577 103.039C80.2755 102.932 80.2992 102.75 80.5092 102.643L81.836 101.878C81.943 101.819 82.0624 101.785 82.1847 101.78C82.3071 101.774 82.429 101.797 82.541 101.847V101.847Z" fill="#5793CE"/>
<path d="M74.0137 27.9216L67.1143 23.9373L67.4074 22.452L74.3068 26.4364L74.0137 27.9216Z" fill="#D4ECFF"/>
<path d="M73.2652 31.371L66.3658 27.3906L66.6588 25.9054L73.5582 29.8858L73.2652 31.371Z" fill="white"/>
<path d="M107.121 79.2472L100.225 75.2628L100.518 73.7776L107.414 77.762L107.121 79.2472Z" fill="#D4ECFF"/>
<path d="M71.768 38.2746L64.8686 34.2942L65.1617 32.809L72.0611 36.7894L71.768 38.2746Z" fill="#D4ECFF"/>
<path d="M85.7807 45.6019L78.8298 41.5898C78.5119 41.3786 78.2641 41.0774 78.118 40.7246C77.972 40.3719 77.9344 39.9837 78.01 39.6095L79.5229 32.8171C79.5387 32.6608 79.5943 32.5112 79.6844 32.3825C79.7745 32.2539 79.896 32.1504 80.0374 32.0821C80.1788 32.0138 80.3354 31.9828 80.4922 31.9922C80.649 32.0017 80.8007 32.0511 80.9329 32.1358L87.8838 36.1519C88.2026 36.3624 88.451 36.6635 88.5971 37.0165C88.7433 37.3694 88.7804 37.758 88.7037 38.1322L87.1868 44.9247C87.1721 45.081 87.1173 45.231 87.0277 45.3599C86.938 45.4888 86.8166 45.5924 86.6751 45.6605C86.5336 45.7287 86.3769 45.7591 86.2202 45.7488C86.0635 45.7386 85.9121 45.688 85.7807 45.6019V45.6019Z" fill="#FFCD6C"/>
<path d="M97.9082 52.6082L90.9533 48.5921C90.6349 48.3812 90.3868 48.08 90.2408 47.7272C90.0947 47.3744 90.0573 46.986 90.1335 46.6118L91.6464 39.8154C91.6617 39.6589 91.7171 39.5091 91.8072 39.3803C91.8973 39.2514 92.0191 39.148 92.1608 39.08C92.3025 39.0119 92.4594 38.9815 92.6162 38.9917C92.7731 39.0019 92.9247 39.0523 93.0564 39.1381L100.011 43.1502C100.329 43.3615 100.577 43.6627 100.723 44.0154C100.869 44.3681 100.907 44.7563 100.831 45.1305L99.3181 51.923C99.304 52.0801 99.2495 52.2309 99.1599 52.3608C99.0703 52.4906 98.9487 52.5951 98.8068 52.664C98.6649 52.733 98.5076 52.7641 98.3501 52.7543C98.1927 52.7445 98.0404 52.6942 97.9082 52.6082V52.6082Z" fill="#B3E0FF"/>
<path d="M83.0914 57.6739L76.1366 53.6578C75.8178 53.4473 75.5694 53.1462 75.4233 52.7932C75.2772 52.4403 75.2401 52.0517 75.3167 51.6775L76.8495 44.8969C76.8648 44.7405 76.9202 44.5906 77.0103 44.4618C77.1004 44.333 77.2222 44.2296 77.3639 44.1615C77.5056 44.0934 77.6624 44.063 77.8193 44.0732C77.9762 44.0834 78.1278 44.1338 78.2595 44.2196L85.2143 48.2317C85.5323 48.443 85.7801 48.7442 85.9261 49.0969C86.0721 49.4496 86.1098 49.8379 86.0342 50.2121L84.5212 57.0045C84.5065 57.1634 84.4505 57.3157 84.3587 57.4463C84.267 57.5769 84.1426 57.6812 83.9981 57.7489C83.8536 57.8165 83.6938 57.8452 83.5348 57.832C83.3757 57.8189 83.2229 57.7644 83.0914 57.6739V57.6739Z" fill="white"/>
<path d="M95.2228 64.6762L88.2679 60.6601C87.9488 60.45 87.7 60.1489 87.5539 59.7958C87.4077 59.4428 87.3709 59.054 87.4481 58.6798L88.961 51.8834C88.9764 51.7269 89.0318 51.5771 89.1219 51.4482C89.212 51.3194 89.3337 51.216 89.4754 51.1479C89.6171 51.0799 89.774 51.0495 89.9309 51.0597C90.0877 51.0698 90.2393 51.1203 90.371 51.2061L97.3219 55.2222C97.6411 55.4323 97.8898 55.7333 98.036 56.0864C98.1821 56.4394 98.219 56.8282 98.1418 57.2025L96.6288 63.9949C96.4664 64.7276 95.8367 65.0326 95.2228 64.6762Z" fill="#396CAA"/>
</svg>
