<svg width="309" height="104" viewBox="0 0 309 104" fill="none" xmlns="http://www.w3.org/2000/svg">
<path d="M40.5303 22.0337C39.0712 24.9068 31.9379 39.3811 23.4535 60.5232C25.0748 59.9811 26.75 59.5474 26.75 59.5474C26.75 59.5474 24.5884 66.8116 23.7778 75.8105C13.8884 72.1784 4.86364 70.7689 4.86364 70.7689C10.8081 69.1426 15.1313 66.9742 16.7525 64.2637C11.8889 65.89 4.32323 64.2637 0 60.4689C14.645 57.1079 24.6424 45.29 30.5328 35.6405C31.6136 33.6347 32.4783 31.9 32.9646 30.6532C34.0995 27.6174 33.5051 24.7984 30.803 23.0637L21.7242 16.0705C19.8869 23.8768 21.4 29.1895 23.5076 31.7916C24.2641 32.7674 24.4803 34.0142 23.9939 35.1526C22.9131 37.5379 17.6712 42.5795 17.6712 42.5795C14.4288 40.4653 10.5919 25.2863 15.2394 1C21.7242 8.42684 40.5303 22.0337 40.5303 22.0337Z" fill="#FFAD40"/>
<path d="M101.056 64.3179C105.919 65.9442 113.485 64.3179 117.808 60.5232C103.163 57.1621 93.1657 45.3442 87.2752 35.6947C86.1944 33.689 85.3298 31.9542 84.8434 30.7074C83.7086 27.6716 84.303 24.8526 87.005 23.1179L96.0838 16.0163C97.9212 23.8226 96.4081 29.1353 94.3005 31.7374C93.5439 32.7132 93.3278 33.96 93.8141 35.0984C94.8949 37.4837 100.137 42.5253 100.137 42.5253C103.379 40.4111 107.216 25.2321 102.569 0.945801C96.0838 8.42685 77.2778 22.0337 77.2778 22.0337C65.8752 31.2495 56.5263 48.5969 56.5263 48.5969C60.0389 46.8079 64.9566 46.4826 64.9566 46.4826C50.852 59.1137 45.2858 76.19 43.0702 87.249C43.7187 87.8995 44.3131 88.55 44.8535 89.2548C48.4742 93.8626 48.6364 95.76 48.6364 95.76C49.9333 96.0853 52.8515 96.6274 56.0399 95.3263C56.4722 95.1637 56.9045 94.9469 57.2828 94.73V89.9053L53.9864 87.249C53.8242 87.1405 53.7162 86.9237 53.6621 86.7069L53.2298 84.4842C53.1217 83.9963 53.5 83.5084 53.9864 83.4542L58.3096 82.9663C58.6879 82.9121 59.1202 82.9121 59.4985 82.9663L63.8217 83.4542C64.3621 83.5084 64.6864 83.9963 64.5783 84.4842L64.1459 86.7069C64.0919 86.9237 63.9838 87.0863 63.8217 87.249L60.5252 89.9053V94.73C60.9035 94.9469 61.3359 95.1095 61.7682 95.3263C64.9566 96.6274 67.9288 96.0853 69.1717 95.76C69.1717 95.76 69.3338 93.8626 72.9545 89.2548C73.6571 88.3332 74.4136 87.52 75.2783 86.6526L74.4136 77.0574L68.5232 66.0526L70.3606 65.0226L80.3581 75.16L80.304 82.6411C93.3278 73.859 112.944 70.8232 112.944 70.8232C107 69.1969 102.677 67.0284 101.056 64.3179ZM69.496 57.9753L86.2485 49.2474C83.7626 62.2037 69.496 57.9753 69.496 57.9753Z" fill="#FFAD40"/>
<path d="M58.904 99.2837C58.904 99.2837 56.8505 100.205 53.4459 100.531V102.048L55.2833 102.916C57.607 104 60.1469 104 62.4707 102.916L64.308 102.048V100.531C60.9575 100.205 58.904 99.2837 58.904 99.2837Z" fill="#FFAD40"/>
<path d="M47.9338 57.8126C47.9338 57.8126 34.2616 61.8784 31.8839 49.4642L47.9338 57.8126Z" fill="#FFAD40"/>
<path d="M182.808 30.8158H212.206V35.9658H188.482V52.229H208.585V57.379H188.482V77.0032H182.862V30.8158H182.808Z" fill="white"/>
<path d="M218.637 53.9095C218.637 40.1942 228.364 30.3821 241.766 30.3821C254.682 30.3821 264.733 39.8148 264.733 53.9095C264.733 67.95 254.682 77.3827 241.766 77.3827C228.364 77.3827 218.637 67.6248 218.637 53.9095ZM258.843 53.9095C258.843 43.1758 251.331 35.6948 241.766 35.6948C231.769 35.6948 224.527 43.4469 224.527 53.9095C224.527 64.3179 231.769 72.07 241.766 72.07C251.277 72.07 258.843 64.589 258.843 53.9095Z" fill="white"/>
<path d="M284.89 53.9095L269.435 30.8158H275.974L288.619 49.4642H288.673L301.319 30.8158H307.858L292.348 53.9095L308.02 77.0032H301.319L288.619 58.409H288.511L275.812 77.0032H269.273L284.89 53.9095Z" fill="white"/>
</svg>
