<svg width="154" height="154" viewBox="0 0 154 154" fill="none" xmlns="http://www.w3.org/2000/svg">
<path d="M101.875 51.4087L81.5857 39.6924C79.2868 38.3686 75.565 38.3686 73.2622 39.6924L51.9817 51.9795L45.9214 49.5062V55.4793L55.7789 61.171V65.1346C55.7392 65.8678 56.199 66.609 57.1661 67.1679C59.025 68.2381 62.0334 68.2381 63.9042 67.1679C64.2625 66.9625 64.5808 66.6939 64.8435 66.3752L77.4358 73.6444L90.2857 66.2246V60.9411C91.8448 60.68 93.4466 60.9302 94.8518 61.6546C95.3825 61.9306 95.8135 62.3658 96.0844 62.8991L108.934 55.4793V49.5062L101.875 51.4087Z" fill="#173D7A"/>
<path d="M89.0768 60.747L88.8707 61.0284H88.9857L77.4279 67.7031L64.8356 60.4299C64.5727 60.7485 64.2545 61.0171 63.8963 61.2226C62.0373 62.2928 59.029 62.2928 57.1582 61.2226C56.8438 61.068 56.5635 60.8519 56.3341 60.587C56.1047 60.3222 55.9307 60.014 55.8225 59.6808C55.6124 60.5092 56.0523 61.3812 57.1582 62.0233C59.0171 63.0934 62.0255 63.0934 63.8963 62.0233C64.2545 61.8177 64.5727 61.5492 64.8356 61.2305L77.4279 68.5037L90.2778 61.0839V60.2912L89.0768 60.747Z" fill="#EEF7FF"/>
<path d="M90.2778 60.2753C89.5199 60.1728 88.7875 59.9309 88.1176 59.5618C86.2627 58.4877 86.2627 56.7517 88.1176 55.6775C89.9726 54.6034 92.9849 54.6074 94.8557 55.6775C95.3859 55.9561 95.8166 56.3923 96.0884 56.9261L108.938 49.5062L81.5896 33.7193C79.2908 32.3955 75.569 32.3915 73.2661 33.7193L45.9175 49.5062L58.5177 56.7834C58.0465 56.9041 57.5933 57.0867 57.1701 57.3264C55.3112 58.3965 55.3112 60.1366 57.1701 61.2107C59.029 62.2848 62.0373 62.2808 63.9081 61.2107C64.2664 61.0051 64.5846 60.7366 64.8475 60.418L77.4398 67.6911L90.2778 60.2753Z" fill="#D4ECFF"/>
<path d="M58.5177 56.7834L45.9254 49.5142V50.3069L57.6616 57.0806C57.9393 56.9609 58.2255 56.8615 58.5177 56.7834V56.7834Z" fill="#EEF7FF"/>
<path d="M96.0765 56.926C95.8047 56.3923 95.374 55.9561 94.8438 55.6775C92.9849 54.6074 89.9766 54.6074 88.1057 55.6775C86.9999 56.3157 86.56 57.1916 86.77 58.02C86.8791 57.6871 87.0533 57.3793 87.2827 57.1146C87.512 56.8499 87.7918 56.6335 88.1057 56.4782C89.9647 55.408 92.973 55.408 94.8438 56.4782C95.374 56.7567 95.8047 57.193 96.0765 57.7267L108.926 50.3069V49.5142L96.0765 56.926Z" fill="#EEF7FF"/>
<path d="M140.675 75.527L116.188 61.3929L103.346 68.8128C103.074 68.278 102.641 67.8415 102.109 67.5642C101.405 67.1797 100.634 66.9322 99.8379 66.8349C99.238 66.0523 98.5907 65.3071 97.8998 64.6034L93.9917 63.4778V69.4667C93.9917 70.1802 94.4396 70.8976 95.3829 71.4485C96.0527 71.8176 96.7851 72.0595 97.543 72.162L91.0745 75.8917L84.6892 73.6047V79.5818L97.9196 87.2196C97.9909 86.5735 98.4467 85.9433 99.2989 85.4518C100.426 84.8584 101.694 84.5843 102.965 84.6591V90.1328L116.188 97.7666L143.536 81.9837C144.725 81.302 145.284 80.3983 145.257 79.5223V73.6681L140.675 75.527Z" fill="url(#paint0_linear_41_3)"/>
<path d="M97.9235 76.6013V87.2158C97.9948 86.5737 98.4506 85.9435 99.3028 85.452C101.158 84.3778 104.17 84.3778 106.041 85.452C106.395 85.65 106.711 85.9105 106.972 86.2209C107.975 85.9131 109.012 85.7321 110.06 85.6819V76.6013H97.9235Z" fill="#173D7A"/>
<path d="M116.188 61.3929L116.093 61.4484V97.7112L116.188 97.7666L143.536 81.9837C144.725 81.302 145.284 80.3983 145.257 79.5223V73.6681L140.671 75.527L116.188 61.3929Z" fill="#173D7A"/>
<path d="M102.965 85.8839V84.1558L104.463 85.0198L102.965 85.8839Z" fill="#396CAA"/>
<path d="M145.217 74.0051C145.066 74.7384 144.511 75.4479 143.536 76.0067L116.188 91.7936L104.658 85.1348C104.658 84.9565 104.59 84.5879 104.59 84.5879L102.961 84.1558V84.9486L116.188 92.5943L143.536 76.8074C144.864 76.0424 145.419 75.0158 145.217 74.0051Z" fill="#BCD4EB"/>
<path d="M143.536 71.2068L116.188 55.4199L103.346 62.8397C103.076 62.3034 102.643 61.8663 102.109 61.5912C100.254 60.5171 97.2418 60.5171 95.371 61.5912C93.5002 62.6653 93.512 64.4014 95.371 65.4755C96.0411 65.8432 96.7735 66.0838 97.5311 66.185L84.6772 73.6048L97.9077 81.2426C97.979 80.6005 98.4348 79.9703 99.287 79.4748C101.142 78.4047 104.154 78.4047 106.025 79.4748C107.896 80.545 107.88 82.285 106.025 83.3552C105.083 83.8593 104.034 84.1311 102.965 84.1479L116.188 91.7936L143.536 76.0067C145.835 74.6829 145.835 72.5307 143.536 71.2068Z" fill="#5793CE"/>
<path d="M95.3868 66.2961C95.7535 66.5025 96.1433 66.6648 96.5481 66.7796L97.547 66.2049C96.7893 66.1037 96.0569 65.8632 95.3868 65.4954C95.0724 65.3401 94.7921 65.1238 94.5621 64.8591C94.3321 64.5944 94.157 64.2866 94.0471 63.9536C93.8371 64.7622 94.281 65.6381 95.3868 66.2961Z" fill="#BCD4EB"/>
<path d="M107.365 81.8173C107.575 80.9889 107.135 80.1169 106.029 79.4788C104.17 78.4047 101.158 78.4047 99.291 79.4788C98.4388 79.9743 97.983 80.6045 97.9116 81.2466L84.6812 73.6088V74.4015L97.9116 82.0393C97.983 81.3972 98.4388 80.767 99.291 80.2715C101.146 79.2014 104.158 79.2014 106.029 80.2715C106.344 80.4264 106.625 80.6431 106.854 80.9086C107.084 81.1742 107.257 81.4832 107.365 81.8173Z" fill="#BCD4EB"/>
<path d="M70.0358 79.5818V73.6047L63.7575 75.9551L57.4435 72.3086C57.1825 72.6291 56.8639 72.8979 56.5042 73.1013C54.6492 74.1715 51.6369 74.1715 49.7661 73.1013C47.8953 72.0312 47.9151 70.3704 49.6472 69.2923L51.1137 70.1128V62.689H46.5834L46.1315 65.7767L38.5333 61.3929L14.3555 75.3566L9.47638 73.6047V79.5778C9.47638 80.4498 10.0511 81.3178 11.2005 81.9797L38.5492 97.7666L51.3832 90.3587C51.6571 90.8789 52.0829 91.3034 52.604 91.5755C54.4629 92.6497 57.4713 92.6497 59.3421 91.5755C60.3052 91.0206 60.765 90.2834 60.7293 89.5541V84.9683L70.0358 79.5818Z" fill="#173D7A"/>
<path d="M38.5333 61.3929L14.3555 75.3566L9.47638 73.6047V79.5778C9.47638 80.4498 10.0511 81.3178 11.2005 81.9797L38.5492 97.7666V61.3929H38.5333Z" fill="#396CAA"/>
<path d="M50.0435 62.7289L49.885 63.1253L49.9246 63.1609L49.778 63.2363C48.6722 63.8744 48.2322 64.7464 48.4423 65.5748C48.5508 65.2421 48.7249 64.9346 48.9543 64.6705C49.1837 64.4063 49.4638 64.1909 49.778 64.0369C50.2016 63.7979 50.6546 63.6153 51.1256 63.4939V62.7012L50.0435 62.7289Z" fill="#BCD4EB"/>
<path d="M59.3144 81.7181C58.6596 81.3581 57.9453 81.1191 57.2058 81.0126L70.0359 73.6047L57.4436 66.3355C57.1838 66.6571 56.865 66.9262 56.5042 67.1282C54.6493 68.2023 51.6369 68.2023 49.7661 67.1282C47.8953 66.0541 47.9112 64.318 49.7661 63.2479C50.1897 63.0089 50.6428 62.8263 51.1138 62.7049L38.5215 55.4357L11.1728 71.2186C8.87395 72.5464 8.87395 74.6947 11.1728 76.0225L38.5215 91.8094L51.3555 84.4015C51.6294 84.9217 52.0552 85.3461 52.5763 85.6183C54.4352 86.6924 57.4436 86.6924 59.3144 85.6183C61.1852 84.5441 61.1733 82.7922 59.3144 81.7181Z" fill="#5793CE"/>
<path d="M59.3143 85.6025C57.4554 86.6767 54.4471 86.6767 52.5763 85.6025C52.0552 85.3304 51.6293 84.9059 51.3555 84.3857L38.5214 91.7936L11.1728 76.0067C10.2017 75.4439 9.64679 74.7384 9.49618 74.0051C9.29007 75.0039 9.84894 76.0424 11.1728 76.8074L38.5214 92.5943L51.3555 85.1864C51.6293 85.7066 52.0552 86.131 52.5763 86.4032C54.4352 87.4773 57.4435 87.4773 59.3143 86.4032C60.4202 85.7651 60.8601 84.8931 60.6501 84.0607C60.5429 84.3945 60.3693 84.7031 60.1397 84.9681C59.9102 85.2331 59.6294 85.4489 59.3143 85.6025V85.6025Z" fill="#BCD4EB"/>
<path d="M57.2057 81.0128C57.5398 81.0673 57.8696 81.1455 58.1927 81.2466L70.0358 74.4055V73.6128L57.2057 81.0128Z" fill="#BCD4EB"/>
<path d="M102.783 100.256L95.6999 96.1655C96.7685 96.1487 97.8175 95.8769 98.7598 95.3728C99.0829 95.217 99.37 94.9956 99.6027 94.7226C99.8354 94.4496 100.009 94.1311 100.111 93.7874L100.151 93.8151V87.4258L94.1581 89.7564L95.5374 90.6879C94.32 90.6381 93.1111 90.9116 92.0336 91.4806C91.1815 91.9721 90.7257 92.6023 90.6543 93.2444L77.4279 85.6066L69.6553 90.1052L68.8626 87.41L64.6097 87.0493V93.6923L65.9097 93.3593C66.1831 93.4614 66.4482 93.5847 66.7024 93.7279C68.5574 94.8021 68.5574 96.5421 66.7024 97.6122C64.8475 98.6824 61.8312 98.6864 59.9644 97.6122C59.4433 97.3401 59.0175 96.9156 58.7436 96.3954L51.6409 100.494L45.9095 97.8302V103.803L73.2582 119.59C75.5531 120.914 79.2789 120.914 81.5817 119.59L108.93 103.803V97.8302L102.783 100.256Z" fill="#D69F5C"/>
<path d="M66.7065 87.7547C66.3999 87.5927 66.0787 87.46 65.7473 87.3583L65.6323 87.1324L64.5939 87.069V87.8617C65.3347 87.9682 66.0503 88.2072 66.7065 88.5672C67.0204 88.7226 67.3002 88.9389 67.5295 89.2037C67.7589 89.4684 67.9331 89.7762 68.0422 90.109C68.2522 89.2846 67.8321 88.3928 66.7065 87.7547Z" fill="#FFE0A3"/>
<path d="M95.6999 90.1922C96.7682 90.1734 97.8168 89.9018 98.7598 89.3995C100.619 88.3254 100.619 86.5893 98.7598 85.5152C96.9009 84.4411 93.8925 84.445 92.0217 85.5152C91.1696 86.0067 90.7138 86.6408 90.6424 87.2829L77.416 79.6451L64.5819 87.0531C65.3227 87.1596 66.0383 87.3986 66.6945 87.7586C68.5495 88.8327 68.5495 90.5687 66.6945 91.6429C64.8396 92.717 61.8233 92.713 59.9564 91.6429C59.4351 91.3692 59.0093 90.9435 58.7357 90.4221L45.9016 97.834L73.2503 113.617C75.5452 114.945 79.2709 114.945 81.5738 113.617L108.922 97.834L95.6999 90.1922Z" fill="#FFCD6C"/>
<path d="M100.096 87.8538C99.9873 88.187 99.8134 88.4952 99.5839 88.76C99.3545 89.0248 99.0743 89.241 98.7598 89.3956C97.8168 89.8979 96.7682 90.1695 95.7 90.1883L96.8652 90.8581C97.5255 90.7448 98.162 90.521 98.748 90.1962C99.8657 89.5581 100.31 88.6821 100.096 87.8538Z" fill="#FFE0A3"/>
<path d="M81.5857 113.613C79.2908 114.941 75.565 114.941 73.2622 113.613L45.9135 97.8301V98.6228L73.2622 114.406C75.5571 115.734 79.2828 115.734 81.5857 114.406L108.934 98.6228V97.8301L81.5857 113.613Z" fill="#FFE0A3"/>
<defs>
<linearGradient id="paint0_linear_41_3" x1="84.6931" y1="79.5818" x2="145.26" y2="79.5818" gradientUnits="userSpaceOnUse">
<stop stop-color="#86B8E0"/>
<stop offset="0.12" stop-color="#98C4E7"/>
<stop offset="0.33" stop-color="#B2D6F2"/>
<stop offset="0.54" stop-color="#C5E2F9"/>
<stop offset="0.76" stop-color="#D0EAFE"/>
<stop offset="1" stop-color="#D4ECFF"/>
</linearGradient>
</defs>
</svg>
