<svg width="52" height="53" viewBox="0 0 52 53" fill="none" xmlns="http://www.w3.org/2000/svg">
<path d="M26.0673 31.4839C29.0429 31.4839 31.4551 29.0717 31.4551 26.0961C31.4551 23.1205 29.0429 20.7083 26.0673 20.7083C23.0917 20.7083 20.6795 23.1205 20.6795 26.0961C20.6795 29.0717 23.0917 31.4839 26.0673 31.4839Z" fill="#699FF1"/>
<path d="M50.5818 23.2675H48.292C46.945 13.1654 38.998 5.21841 29.0306 3.87146V1.44695C29.0306 0.638785 28.4918 0.100006 27.6837 0.100006H24.3163C23.5081 0.100006 22.9693 0.638785 22.9693 1.44695V3.87146C13.0019 5.21841 5.05493 13.1654 3.70798 23.2675H1.41817C0.609999 23.2675 0.0712194 23.8063 0.0712194 24.6145V27.8471C0.0712194 28.6553 0.609999 29.1941 1.41817 29.1941H3.84267C5.18962 39.1615 13.1366 46.9738 22.9693 48.3208V50.7453C22.9693 51.5534 23.5081 52.0922 24.3163 52.0922H27.549C28.3571 52.0922 28.8959 51.5534 28.8959 50.7453V48.3208C38.8633 46.9738 46.6756 39.1615 48.1573 29.1941H50.5818C51.3899 29.1941 51.9287 28.6553 51.9287 27.8471V24.6145C51.9287 23.8063 51.3899 23.2675 50.5818 23.2675ZM29.0306 41.0472V37.4105C29.0306 36.6023 28.4918 36.0635 27.6837 36.0635H24.3163C23.5081 36.0635 22.9693 36.6023 22.9693 37.4105V41.0472C17.0428 39.835 12.3284 35.1207 10.9815 29.1941H14.6183C15.4264 29.1941 15.9652 28.6553 15.9652 27.8471V24.6145C15.9652 23.8063 15.4264 23.2675 14.6183 23.2675H10.9815C12.1938 17.2063 16.9081 12.3572 22.9693 11.145V14.7817C22.9693 15.5899 23.5081 16.1287 24.3163 16.1287H27.549C28.3571 16.1287 28.8959 15.5899 28.8959 14.7817V11.145C34.9572 12.3572 39.6715 17.2063 40.8838 23.2675H37.1123C36.3041 23.2675 35.7653 23.8063 35.7653 24.6145V27.8471C35.7653 28.6553 36.3041 29.1941 37.1123 29.1941H40.7491C39.6715 35.1207 34.9572 39.835 29.0306 41.0472Z" fill="#699FF1"/>
</svg>
