<svg width="124" height="102" viewBox="0 0 124 102" fill="none" xmlns="http://www.w3.org/2000/svg">
<path d="M44.5042 100.656L95.5682 71.1172C96.5782 70.5332 97.0527 69.7504 97.0689 68.9351H97.0973V55.4979C97.0973 55.4979 95.3087 57.0026 94.2582 57.8827L62.0258 39.3066C59.4016 37.7938 55.439 37.6356 53.1676 38.9456L4.35056 67.1992L0.570446 65.0212V78.5112L0.594781 78.4909C0.619116 79.4805 1.3289 80.5188 2.74036 81.33L35.6501 100.296C38.2702 101.808 42.241 101.967 44.5042 100.656Z" fill="#5793CE"/>
<path d="M94.2459 57.9031L62.0135 39.327C59.3893 37.8182 55.4267 37.6559 53.1553 38.966L40.44 46.3234V101.533C41.8455 101.602 43.2445 101.3 44.4959 100.657L95.56 71.1173C96.5699 70.5332 97.0445 69.7504 97.0607 68.9352H97.0891V55.4979L94.2459 57.9031Z" fill="#396CAA"/>
<path d="M2.08735 62.6812L53.1474 33.1419C55.4146 31.8319 59.3813 31.99 62.0055 33.5029L94.9193 52.4684C97.5394 53.9812 97.8274 56.2688 95.5561 57.5829L44.5042 87.1181C42.2369 88.4322 38.2702 88.27 35.6461 86.7612L2.73224 67.7957C0.112118 66.2829 -0.175851 63.9953 2.08735 62.6812Z" fill="#D4ECFF"/>
<path d="M44.3864 88.4929L95.4464 58.9577C96.6916 58.2357 97.1377 57.2258 96.8863 56.2078C96.6027 56.7938 96.1395 57.2741 95.564 57.5787L44.504 87.118C42.2368 88.4321 38.2701 88.2698 35.6459 86.761L2.73615 67.7955C1.54776 67.1101 0.866371 66.2705 0.655463 65.4309C0.103858 66.6477 0.764974 68.1038 2.61447 69.1705L35.5283 88.136C38.1525 89.6448 42.1151 89.807 44.3864 88.4929Z" fill="white"/>
<path d="M55.9215 54.5653C54.0152 53.4662 54.0152 51.6856 55.9215 50.5824C57.8278 49.4792 60.9103 49.4792 62.8166 50.5824C64.7228 51.6856 64.7188 53.4621 62.8166 54.5613C60.9143 55.6604 57.8237 55.6604 55.9215 54.5653Z" fill="white"/>
<path d="M45.4856 60.6004C43.5834 59.5053 43.5793 57.7207 45.4856 56.6215C47.3919 55.5224 50.4744 55.5183 52.3807 56.6215C54.287 57.7247 54.287 59.4972 52.3807 60.6004C50.4744 61.7036 47.3878 61.6995 45.4856 60.6004Z" fill="#173D7A"/>
<path d="M35.0457 66.6396C33.1394 65.5404 33.1394 63.7599 35.0457 62.6607C36.952 61.5616 40.0345 61.5575 41.9408 62.6607C43.8471 63.7639 43.8471 65.5404 41.9408 66.6396C40.0345 67.7388 36.9682 67.7347 35.0457 66.6396Z" fill="#396CAA"/>
<path d="M95.6777 40.9576L89.0746 37.1653L113.41 23.1156C114.562 22.4504 114.562 21.3715 113.41 20.7104L88.5514 6.34031C87.9055 6.0122 87.1912 5.8412 86.4667 5.8412C85.7422 5.8412 85.0279 6.0122 84.3819 6.34031L60.0464 20.39L53.4434 16.5774L77.7789 2.52774C82.5689 -0.234344 90.3523 -0.234344 95.1504 2.52774L120.013 16.8857C124.799 19.6518 124.799 24.1499 120.013 26.916L95.6777 40.9576Z" fill="#173D7A"/>
<path d="M106.324 42.6327C106.324 39.104 104.183 35.0076 101.534 33.4785L57.4425 8.02351C56.2582 7.33806 55.1753 7.28939 54.3397 7.75582L1.6817 38.3496L52.5997 76.7105L104.467 46.6075C104.629 46.5348 104.782 46.445 104.925 46.3398V46.3398C105.789 45.6827 106.324 44.397 106.324 42.6327Z" fill="#D4ECFF"/>
<path d="M52.5997 76.7104L104.467 46.6074C104.629 46.5347 104.782 46.445 104.925 46.3397V46.3397C105.789 45.6826 106.324 44.3969 106.324 42.6326C106.285 40.8576 105.844 39.1146 105.035 37.5343L45.9115 71.6689L52.5997 76.7104Z" fill="#396CAA"/>
<path d="M49.286 76.5726L5.1941 51.1176C2.54559 49.5885 0.400002 45.4921 0.400002 41.9634C0.400002 38.4347 2.54559 36.8124 5.1941 38.3374L49.286 63.7964C51.9305 65.3255 54.0761 69.422 54.0761 72.9506C54.0761 76.4793 51.9305 78.1017 49.286 76.5726Z" fill="#173D7A"/>
<path d="M49.8133 63.5532L5.73765 38.0982C4.52087 37.3966 3.41361 37.3641 2.56998 37.8752C3.01817 37.7658 3.48414 37.7504 3.93857 37.83C4.39299 37.9096 4.82601 38.0824 5.21038 38.3375L49.3023 63.7966C51.9468 65.3256 54.0923 69.4221 54.0923 72.9508C54.0923 74.857 53.4637 76.1955 52.47 76.7998C53.7679 76.3942 54.6237 74.9382 54.6237 72.7115C54.6074 69.1828 52.4619 65.0823 49.8133 63.5532Z" fill="white"/>
<path d="M42.679 67.9903L37.3739 64.9321C37.0834 64.7235 36.8459 64.4498 36.6803 64.1328C36.5148 63.8158 36.4259 63.4645 36.4207 63.1069C36.4207 62.4012 36.8466 62.0808 37.3739 62.385L42.675 65.4431C42.9662 65.6513 43.2045 65.9248 43.3707 66.2418C43.537 66.5588 43.6265 66.9104 43.6322 67.2683V67.2683C43.6362 67.9903 43.2063 68.2945 42.679 67.9903Z" fill="#FFCD6C"/>
<path d="M49.4523 32.2414C50.8394 31.4302 50.8273 30.1161 49.4239 29.3292C48.6376 28.9395 47.7703 28.7411 46.8928 28.7503C46.0153 28.7595 45.1523 28.9759 44.3743 29.3819C42.9912 30.1931 43.0034 31.5032 44.4068 32.2941C45.1926 32.6828 46.0591 32.8807 46.9359 32.8715C47.8126 32.8623 48.6747 32.6464 49.4523 32.2414Z" fill="#5793CE"/>
<path d="M57.1465 36.5773C58.5336 35.7661 58.5174 34.452 57.114 33.6611C56.3282 33.2723 55.4617 33.0745 54.5849 33.0837C53.7082 33.0928 52.846 33.3087 52.0685 33.7138C50.6813 34.525 50.6976 35.8391 52.0969 36.63C52.8834 37.0188 53.7506 37.2166 54.628 37.2075C55.5053 37.1983 56.3682 36.9824 57.1465 36.5773V36.5773Z" fill="white"/>
<path d="M64.8404 40.9087C66.2235 40.0975 66.2113 38.7875 64.808 37.9966C64.0214 37.6078 63.1542 37.41 62.2769 37.4191C61.3995 37.4283 60.5367 37.6442 59.7584 38.0493C58.3753 38.8605 58.3875 40.1746 59.7908 40.9615C60.5774 41.3502 61.4446 41.5481 62.3219 41.5389C63.1993 41.5297 64.0621 41.3138 64.8404 40.9087Z" fill="white"/>
</svg>
