<svg width="26" height="26" viewBox="0 0 26 26" fill="none" xmlns="http://www.w3.org/2000/svg">
<circle cx="13" cy="13" r="13" fill="#7D3DAF"/>
<path d="M20.4511 9.0765L20.4464 9.05788C20.0701 7.53645 18.3734 5.90386 16.8152 5.56422L16.7977 5.5606C14.2774 5.07982 11.7221 5.07982 9.20238 5.5606L9.18428 5.56422C7.62666 5.90386 5.92997 7.53645 5.5531 9.05788L5.54897 9.0765C5.08369 11.2012 5.08369 13.356 5.54897 15.4807L5.5531 15.4993C5.91389 16.9558 7.48423 18.5134 8.98422 18.9417V20.6401C8.98422 21.2548 9.7333 21.5567 10.1593 21.1131L11.88 19.3245C12.2532 19.3453 12.6266 19.357 13 19.357C14.2687 19.357 15.5378 19.237 16.7977 18.9966L16.8152 18.993C18.3734 18.6534 20.0701 17.0208 20.4464 15.4994L20.4511 15.4807C20.9163 13.356 20.9163 11.2012 20.4511 9.0765ZM19.0894 15.1726C18.8381 16.1652 17.5499 17.3992 16.5263 17.6271C15.1862 17.882 13.8356 17.9909 12.4863 17.9535C12.4595 17.9528 12.4337 17.9632 12.415 17.9824C12.2235 18.179 11.1586 19.2721 11.1586 19.2721L9.82222 20.6437C9.72451 20.7455 9.55288 20.6762 9.55288 20.5356V17.7222C9.55288 17.6757 9.51969 17.6362 9.47404 17.6272C9.47378 17.6272 9.47353 17.6271 9.47327 17.6271C8.44967 17.3991 7.1619 16.1651 6.91014 15.1725C6.4914 13.252 6.4914 11.3051 6.91014 9.38456C7.1619 8.39198 8.44967 7.15798 9.47327 6.92999C11.8136 6.48488 14.1865 6.48488 16.5263 6.92999C17.5504 7.15798 18.8381 8.39198 19.0894 9.38456C19.5086 11.3051 19.5086 13.252 19.0894 15.1726Z" fill="white"/>
<path d="M15.2267 16.4712C15.0693 16.4235 14.9193 16.3914 14.7801 16.3336C13.3369 15.7348 12.0087 14.9624 10.9566 13.7782C10.3583 13.1049 9.89005 12.3447 9.49421 11.5402C9.3065 11.1587 9.14831 10.7622 8.98706 10.3683C8.84004 10.0091 9.0566 9.63805 9.28463 9.36742C9.4986 9.11343 9.77394 8.91905 10.0721 8.7758C10.3049 8.66398 10.5345 8.72845 10.7044 8.92572C11.0719 9.35222 11.4094 9.80054 11.6827 10.2949C11.8508 10.599 11.8047 10.9707 11.5001 11.1776C11.4261 11.2279 11.3586 11.287 11.2896 11.3438C11.2292 11.3936 11.1722 11.4439 11.1308 11.5113C11.055 11.6346 11.0514 11.7801 11.1002 11.9142C11.4758 12.9465 12.1089 13.7492 13.1479 14.1815C13.3142 14.2507 13.4812 14.3312 13.6727 14.3089C13.9935 14.2714 14.0974 13.9196 14.3221 13.7357C14.5418 13.5561 14.8226 13.5537 15.0593 13.7035C15.296 13.8533 15.5255 14.0141 15.7536 14.1767C15.9775 14.3362 16.2004 14.4923 16.4069 14.6741C16.6055 14.849 16.6739 15.0785 16.5621 15.3158C16.3573 15.7505 16.0595 16.1121 15.6298 16.3429C15.5084 16.408 15.3635 16.4291 15.2267 16.4712C15.3635 16.4291 15.0693 16.4234 15.2267 16.4712Z" fill="white"/>
<path d="M13.004 8.2788C14.8917 8.33169 16.4421 9.58446 16.7744 11.4507C16.831 11.7687 16.8511 12.0938 16.8763 12.4166C16.8869 12.5523 16.81 12.6813 16.6635 12.6831C16.5122 12.6849 16.4441 12.5583 16.4343 12.4226C16.4149 12.1539 16.4014 11.8841 16.3644 11.6177C16.169 10.2115 15.0476 9.04815 13.648 8.79851C13.4373 8.76093 13.2218 8.75105 13.0084 8.72867C12.8735 8.7145 12.6969 8.70633 12.667 8.53868C12.6419 8.39812 12.7606 8.28619 12.8944 8.27901C12.9308 8.27699 12.9674 8.27865 13.004 8.2788C14.8917 8.33169 12.9674 8.27865 13.004 8.2788Z" fill="white"/>
<path d="M15.8727 11.9977C15.8696 12.0213 15.8679 12.0767 15.8541 12.1289C15.804 12.3184 15.5167 12.3421 15.4505 12.1509C15.4309 12.0941 15.428 12.0295 15.4279 11.9684C15.4272 11.5686 15.3403 11.1692 15.1387 10.8213C14.9314 10.4638 14.6148 10.1632 14.2434 9.98135C14.0188 9.87139 13.776 9.80305 13.5298 9.76231C13.4223 9.74453 13.3135 9.73372 13.2054 9.71868C13.0744 9.70048 13.0045 9.61699 13.0107 9.4879C13.0165 9.36693 13.1049 9.27993 13.2367 9.28737C13.6699 9.31198 14.0884 9.4056 14.4735 9.60955C15.2567 10.0243 15.7041 10.679 15.8347 11.5532C15.8406 11.5928 15.8501 11.632 15.8531 11.6718C15.8605 11.77 15.8651 11.8682 15.8727 11.9977C15.8696 12.0213 15.8651 11.8682 15.8727 11.9977Z" fill="white"/>
<path d="M14.6986 11.952C14.5407 11.9548 14.4561 11.8674 14.4398 11.7226C14.4285 11.6216 14.4196 11.5193 14.3955 11.4211C14.348 11.2276 14.2452 11.0483 14.0825 10.9298C14.0056 10.8738 13.9186 10.833 13.8274 10.8067C13.7115 10.7733 13.5912 10.7825 13.4756 10.7541C13.3501 10.7234 13.2807 10.6217 13.3004 10.504C13.3184 10.3968 13.4227 10.3132 13.5398 10.3216C14.2716 10.3745 14.7947 10.7528 14.8693 11.6144C14.8746 11.6752 14.8808 11.7395 14.8673 11.7976C14.8442 11.8972 14.7705 11.9471 14.6986 11.952C14.7705 11.9471 14.5407 11.9548 14.6986 11.952Z" fill="white"/>
</svg>
