<svg width="60" height="43" viewBox="0 0 60 43" fill="none" xmlns="http://www.w3.org/2000/svg">
<g id="youtube">
<path id="path4156 1" d="M58.7246 6.62711C58.0425 4.04824 56.0257 1.97914 53.475 1.31943C48.7592 0 29.9851 0 29.9851 0C29.9851 0 11.2407 0 6.52496 1.22946C4.00395 1.94915 1.92783 4.04824 1.21601 6.62711C0 11.395 0 21.2308 0 21.2308C0 21.2308 0 31.1264 1.21601 35.8044C1.92783 38.3833 3.94463 40.4524 6.52496 41.1721C11.2704 42.4615 29.9851 42.4615 29.9851 42.4615C29.9851 42.4615 48.7592 42.4615 53.475 41.232C56.0257 40.5124 58.0721 38.5032 58.7246 35.8644C59.9999 31.1564 59.9999 21.2907 59.9999 21.2907C59.9999 21.2907 60.0296 11.395 58.7246 6.62711ZM24.0237 30.3168V12.1447L39.6243 21.2607L24.0237 30.3168Z" fill="url(#paint0_linear_95_0)" fill-opacity="0.75"/>
<path id="Vector" d="M39.6243 21.2306L24.0237 30.3166V12.1445L39.6243 21.2306Z" fill="white"/>
</g>
<defs>
<linearGradient id="paint0_linear_95_0" x1="29.9971" y1="42.4495" x2="29.9971" y2="0" gradientUnits="userSpaceOnUse">
<stop stop-color="#C21819"/>
<stop offset="1" stop-color="#E02D26"/>
</linearGradient>
</defs>
</svg>
